<svg width="100" height="100" viewBox="0 0 100 100" fill="none" xmlns="http://www.w3.org/2000/svg">
<g clip-path="url(#clip0_1_32)">
<g clip-path="url(#clip1_1_32)">
<g clip-path="url(#clip2_1_32)">
<mask id="mask0_1_32" style="mask-type:luminance" maskUnits="userSpaceOnUse" x="0" y="0" width="100" height="100">
<path d="M100 0H0V100H100V0Z" fill="white"/>
</mask>
<g mask="url(#mask0_1_32)">
<path d="M100 0H0V100H100V0Z" fill="#D0122E"/>
<path d="M65.2472 22.034C65.444 21.9319 65.609 21.7779 65.7245 21.5887C65.84 21.3994 65.9015 21.1822 65.9023 20.9605C65.9008 20.8495 65.8838 20.7393 65.8519 20.6329C66.0627 20.4744 66.3189 20.3878 66.5827 20.386C67.3789 20.386 68.0441 21.2428 68.0492 22.2961C67.9956 23.2273 67.7949 24.1441 67.4545 25.0125C66.817 23.9505 66.0777 22.953 65.2472 22.034ZM40.1653 52.9634C40.5718 53.0655 40.9841 53.1429 41.4 53.1952C41.3125 53.3474 41.2627 53.5183 41.2548 53.6937C41.2469 53.869 41.2811 54.0437 41.3546 54.2032C42.1458 54.2032 42.5893 54.1276 42.6448 54.1628C43.698 54.9037 42.9371 57.2623 47.2156 55.3673C47.9565 55.7403 48.6721 57.6201 47.7196 59.9586C46.9923 61.6865 45.9918 63.286 44.7563 64.696C45.2603 65.6183 48.0573 65.9409 50.4359 65.064C54.3869 63.4563 55.5309 58.1191 60.9384 56.713C52.1695 53.7647 53.9737 49.7026 53.9737 49.7026C55.3193 50.3578 56.1155 49.2339 55.9895 48.5233C56.1375 48.5315 56.2856 48.5094 56.4247 48.4584C56.5638 48.4074 56.6911 48.3286 56.7986 48.2266C56.9062 48.1247 56.9918 48.0019 57.0503 47.8657C57.1087 47.7295 57.1388 47.5829 57.1385 47.4347C57.1532 47.3081 57.1426 47.1799 57.1074 47.0575C57.0722 46.9351 57.013 46.8209 56.9333 46.7215C56.8536 46.6221 56.755 46.5395 56.6432 46.4786C56.5313 46.4176 56.4085 46.3794 56.2818 46.3662C56.1516 46.3656 56.0239 46.4023 55.9139 46.4721C55.6468 40.4243 61.2811 31.4081 66.628 27.0335C62.8383 35.7625 64.1082 38.9829 64.1082 39.0031C65.4463 39.1568 66.7945 39.2023 68.1399 39.1391C68.0744 38.9275 67.7216 37.8338 67.7569 34.7343C67.7972 30.9998 70.0247 27.4014 69.9693 23.6468C69.9138 20.3558 68.4272 19.2924 67.0312 19.2924C66.7135 19.2737 66.3953 19.3185 66.095 19.424C65.7948 19.5296 65.5186 19.6938 65.2825 19.9072C65.0869 19.7867 64.862 19.7222 64.6324 19.7207C64.4085 19.7205 64.1888 19.7814 63.9969 19.8968C63.8051 20.0123 63.6484 20.178 63.5438 20.3759C62.4094 19.3713 61.1344 18.5377 59.7591 17.9014C56.1004 22.8857 53.8074 24.3322 49.6346 27.3611C45.8269 30.2095 42.3887 33.5209 39.3993 37.219C39.3074 37.0433 39.1701 36.8955 39.0017 36.7909C38.8333 36.6863 38.64 36.6287 38.4418 36.6243C38.1186 36.6438 37.8163 36.7904 37.601 37.0322C37.3857 37.274 37.2748 37.5912 37.2927 37.9145C37.2877 38.1396 37.3401 38.3624 37.4451 38.5617C37.55 38.7609 37.704 38.9302 37.8925 39.0535C37.7118 39.0944 37.5505 39.1955 37.4349 39.3402C37.3193 39.4849 37.2563 39.6646 37.2563 39.8498C37.2563 40.035 37.3193 40.2147 37.4349 40.3594C37.5505 40.5041 37.7118 40.6052 37.8925 40.6461C36.8291 43.8211 37.963 45.2524 39.0667 46.7694C40.3366 48.3872 40.0746 49.0978 39.8932 49.3801C39.7117 49.6623 38.9457 50.7156 38.7794 50.9374C38.6786 51.0734 38.6685 51.1137 38.6988 51.1793C39.1675 51.8748 40.4223 52.1066 40.4223 52.1066C40.382 52.2477 40.2409 52.6458 40.1351 52.9634" fill="white"/>
<path d="M47.4875 72.6488C47.7143 72.6488 48.0369 72.6891 48.5307 72.7395C48.8029 72.7395 48.818 72.9007 48.8533 73.0167C48.8706 73.083 48.884 73.1503 48.8936 73.2183C48.8961 73.2611 48.9146 73.3014 48.9454 73.3313C48.9761 73.3611 49.017 73.3783 49.0599 73.3795H49.2514C49.2955 73.3795 49.3378 73.362 49.369 73.3308C49.4002 73.2996 49.4177 73.2573 49.4177 73.2132V72.0188C49.4177 71.9281 49.3471 71.8777 49.2564 71.8525C48.5123 71.7648 47.763 71.7278 47.0138 71.7416C46.1319 71.7769 44.6301 72.0188 44.6301 73.4803C44.6202 73.7905 44.7139 74.0952 44.8964 74.3462C45.0789 74.5972 45.3399 74.7802 45.638 74.8663C45.9606 74.962 46.268 75.0175 46.5603 75.1031C46.8469 75.1754 47.1295 75.2629 47.4069 75.3652C47.5273 75.4164 47.6264 75.5074 47.6876 75.623C47.7488 75.7386 47.7683 75.8718 47.7429 76.0001C47.7175 76.1284 47.6486 76.2441 47.548 76.3276C47.4473 76.4111 47.321 76.4575 47.1902 76.4589C46.7108 76.4858 46.2299 76.4672 45.7539 76.4034C45.4868 76.353 45.4667 76.2421 45.4314 76.1262C45.4087 76.0449 45.3902 75.9625 45.376 75.8793C45.3747 75.8356 45.3568 75.794 45.3259 75.7631C45.2949 75.7322 45.2534 75.7142 45.2097 75.713H45.0182C44.9736 75.7143 44.9313 75.7329 44.9002 75.7649C44.8692 75.7969 44.8518 75.8397 44.8519 75.8843V77.0737C44.8519 77.1695 44.9224 77.2148 45.0131 77.2451C45.7592 77.3301 46.5099 77.3671 47.2608 77.3559C48.1376 77.3207 49.6394 77.0737 49.6394 75.6122C49.6476 75.3024 49.5533 74.9985 49.371 74.7479C49.1887 74.4973 48.9288 74.3139 48.6315 74.2262C47.931 74.0095 47.5228 73.9742 46.8626 73.7222C46.7625 73.6798 46.6763 73.61 46.6139 73.5209C46.5515 73.4318 46.5154 73.3269 46.5099 73.2183C46.5099 72.7949 46.8173 72.6135 47.4875 72.6639" fill="white"/>
<path d="M27.9998 71.2679V76.0708C27.9998 76.5748 27.8386 76.5748 27.6974 76.6302C27.5563 76.6857 27.2792 76.7159 27.1935 76.726C27.1502 76.7297 27.1099 76.7492 27.0801 76.7808C27.0504 76.8124 27.0333 76.8539 27.0322 76.8973V77.109C27.0322 77.1531 27.0497 77.1954 27.0809 77.2266C27.1121 77.2578 27.1544 77.2753 27.1985 77.2753H30.7665C30.8106 77.2753 30.8529 77.2578 30.8841 77.2266C30.9153 77.1954 30.9328 77.1531 30.9328 77.109V76.9175C30.9306 76.8736 30.9124 76.8321 30.8819 76.8006C30.8513 76.7691 30.8103 76.7497 30.7665 76.7461C30.696 76.7461 30.3583 76.6756 30.2626 76.6504C30.1668 76.6252 29.9854 76.5849 29.9653 76.091V70.2498C29.9639 70.2052 29.9453 70.1629 29.9133 70.1319C29.8813 70.1008 29.8385 70.0835 29.7939 70.0835H27.2137C27.1695 70.0835 27.1272 70.101 27.0961 70.1322C27.0649 70.1634 27.0473 70.2057 27.0473 70.2498V70.4413C27.0473 70.4846 27.0642 70.5261 27.0943 70.5572C27.1244 70.5882 27.1654 70.6063 27.2086 70.6076C27.2792 70.6076 27.6219 70.6832 27.7126 70.7084C27.8033 70.7336 27.9998 70.7689 28.0149 71.2679" fill="white"/>
<path d="M85.5214 71.2679V76.0708C85.5214 76.5748 85.3601 76.5748 85.219 76.6302C85.0779 76.6857 84.8763 76.7159 84.8057 76.726C84.762 76.7296 84.721 76.7489 84.6904 76.7804C84.6598 76.8119 84.6417 76.8535 84.6394 76.8973V77.109C84.6407 77.1536 84.6594 77.1959 84.6914 77.2269C84.7234 77.258 84.7662 77.2753 84.8108 77.2753H88.2578C88.2797 77.2753 88.3013 77.271 88.3215 77.2627C88.3417 77.2543 88.36 77.242 88.3754 77.2266C88.3909 77.2112 88.4031 77.1928 88.4115 77.1726C88.4198 77.1525 88.4242 77.1308 88.4242 77.109V76.9175C88.4231 76.8741 88.406 76.8326 88.3763 76.801C88.3465 76.7694 88.3061 76.7498 88.2629 76.7461C88.1923 76.7461 87.8496 76.6756 87.7589 76.6504C87.6682 76.6252 87.4767 76.5849 87.4566 76.091V70.2498C87.4566 70.228 87.4523 70.2063 87.4439 70.1862C87.4355 70.166 87.4233 70.1477 87.4078 70.1322C87.3924 70.1168 87.3741 70.1045 87.3539 70.0962C87.3337 70.0878 87.3121 70.0835 87.2903 70.0835H84.7705C84.7259 70.0835 84.6831 70.1008 84.6511 70.1319C84.6191 70.1629 84.6004 70.2052 84.5991 70.2498V70.4413C84.6004 70.485 84.6183 70.5266 84.6492 70.5575C84.6802 70.5884 84.7217 70.6064 84.7654 70.6076C84.836 70.6076 85.1031 70.6832 85.1787 70.7084C85.2543 70.7336 85.4659 70.7689 85.481 71.2679" fill="white"/>
<path d="M34.8034 70.2901C34.8034 70.7386 34.2239 71.1015 33.5133 71.1015C32.8027 71.1015 32.2231 70.7386 32.2231 70.2901C32.2231 69.8415 32.8027 69.4736 33.5133 69.4736C34.2239 69.4736 34.8034 69.8415 34.8034 70.2901Z" fill="white"/>
<path d="M32.6717 73.0169V76.071C32.6717 76.575 32.5104 76.575 32.3693 76.6304C32.2282 76.6859 31.951 76.7161 31.8654 76.7262C31.8221 76.7299 31.7817 76.7494 31.752 76.7811C31.7222 76.8127 31.7052 76.8541 31.7041 76.8976V77.1092C31.7041 77.1533 31.7216 77.1956 31.7528 77.2268C31.784 77.258 31.8263 77.2755 31.8704 77.2755H35.4384C35.4825 77.2755 35.5248 77.258 35.556 77.2268C35.5872 77.1956 35.6047 77.1533 35.6047 77.1092V76.9177C35.6036 76.8743 35.5866 76.8328 35.5568 76.8012C35.5271 76.7696 35.4867 76.7501 35.4435 76.7464C35.3729 76.7464 35.0302 76.6758 34.9395 76.6506C34.8488 76.6254 34.6573 76.5851 34.6371 76.0912V72.019C34.6371 71.9744 34.6198 71.9316 34.5887 71.8996C34.5577 71.8676 34.5154 71.849 34.4708 71.8477H31.8855C31.841 71.849 31.7987 71.8676 31.7676 71.8996C31.7366 71.9316 31.7192 71.9744 31.7192 72.019V72.2105C31.7204 72.2534 31.7376 72.2943 31.7675 72.3251C31.7973 72.3559 31.8377 72.3743 31.8805 72.3768C31.951 72.3768 32.2937 72.4524 32.3844 72.4776C32.4752 72.5028 32.6717 72.5381 32.6868 73.0371" fill="white"/>
<path d="M74.878 70.2901C74.878 70.7386 74.3034 71.1015 73.5878 71.1015C72.8722 71.1015 72.3027 70.7386 72.3027 70.2901C72.3027 69.8415 72.8772 69.4736 73.5878 69.4736C74.2984 69.4736 74.878 69.8415 74.878 70.2901Z" fill="white"/>
<path d="M72.7459 73.0169V76.071C72.7459 76.575 72.5897 76.575 72.4486 76.6304C72.3075 76.6859 72.0303 76.7161 71.9446 76.7262C71.9009 76.7298 71.8599 76.7491 71.8293 76.7807C71.7987 76.8122 71.7806 76.8537 71.7783 76.8976V77.1092C71.7796 77.1538 71.7983 77.1961 71.8303 77.2271C71.8622 77.2582 71.9051 77.2756 71.9497 77.2755H75.5126C75.5572 77.2756 75.6001 77.2582 75.6321 77.2271C75.664 77.1961 75.6827 77.1538 75.684 77.1092V76.9177C75.6817 76.8739 75.6636 76.8323 75.633 76.8008C75.6024 76.7693 75.5614 76.75 75.5177 76.7464C75.4471 76.7464 75.1044 76.6758 75.0137 76.6506C74.923 76.6254 74.7315 76.5851 74.7113 76.0912V72.019C74.7114 71.9744 74.694 71.9316 74.663 71.8996C74.6319 71.8676 74.5896 71.849 74.545 71.8477H71.9648C71.9193 71.8477 71.8758 71.8657 71.8436 71.8978C71.8115 71.93 71.7934 71.9736 71.7934 72.019V72.2105C71.7959 72.2538 71.8141 72.2948 71.8448 72.3254C71.8755 72.3561 71.9164 72.3744 71.9597 72.3768C72.0303 72.3768 72.373 72.4524 72.4637 72.4776C72.5544 72.5028 72.7459 72.5381 72.761 73.0371" fill="white"/>
<path d="M58.706 76.9882C58.7209 77.0183 58.7439 77.0436 58.7723 77.0614C58.8008 77.0792 58.8337 77.0888 58.8672 77.089C58.9009 77.0894 58.934 77.0801 58.9626 77.0622C58.9912 77.0443 59.0141 77.0186 59.0285 76.9882L61.382 72.0996V76.071C61.382 76.5749 61.2207 76.5749 61.0846 76.6304C60.9486 76.6858 60.6664 76.7161 60.5807 76.7261C60.5369 76.7297 60.4959 76.7491 60.4654 76.7806C60.4348 76.8121 60.4167 76.8536 60.4144 76.8975V77.1092C60.4144 77.1533 60.4319 77.1956 60.4631 77.2268C60.4943 77.2579 60.5366 77.2755 60.5807 77.2755H64.2394C64.2835 77.2755 64.3258 77.2579 64.357 77.2268C64.3882 77.1956 64.4057 77.1533 64.4057 77.1092V76.9176C64.4046 76.8742 64.3876 76.8328 64.3578 76.8011C64.3281 76.7695 64.2877 76.75 64.2444 76.7463C64.1689 76.7463 63.8312 76.6757 63.7405 76.6505C63.6498 76.6253 63.4633 76.5901 63.4432 76.0911V71.2882C63.4432 70.7842 63.6044 70.7842 63.7405 70.7287C63.8766 70.6733 64.1588 70.6431 64.2444 70.633C64.2877 70.6293 64.3281 70.6098 64.3578 70.5781C64.3876 70.5465 64.4046 70.505 64.4057 70.4616V70.2701C64.4057 70.2483 64.4014 70.2267 64.393 70.2065C64.3847 70.1863 64.3724 70.168 64.357 70.1525C64.3416 70.1371 64.3232 70.1248 64.303 70.1165C64.2829 70.1081 64.2612 70.1038 64.2394 70.1038H61.6692C61.6237 70.109 61.5807 70.1276 61.5457 70.1572C61.5108 70.1868 61.4853 70.2261 61.4727 70.2701L59.6282 74.0853L57.7636 70.2449C57.7515 70.2005 57.7263 70.1609 57.6912 70.1312C57.6561 70.1015 57.6128 70.0831 57.567 70.0786H54.8406C54.7965 70.0786 54.7542 70.0961 54.723 70.1273C54.6918 70.1585 54.6743 70.2008 54.6743 70.2449V70.4364C54.6754 70.4798 54.6924 70.5213 54.7222 70.5529C54.752 70.5845 54.7923 70.6041 54.8356 70.6078C54.9112 70.6078 55.2488 70.6783 55.3395 70.7035C55.4303 70.7287 55.6268 70.764 55.6419 71.263V76.0659C55.6419 76.5699 55.4806 76.5699 55.3395 76.6253C55.1984 76.6808 54.9263 76.711 54.8356 76.7211C54.7923 76.7248 54.752 76.7443 54.7222 76.7759C54.6924 76.8076 54.6754 76.849 54.6743 76.8924V77.1092C54.6743 77.1533 54.6918 77.1956 54.723 77.2268C54.7542 77.2579 54.7965 77.2755 54.8406 77.2755H57.1336C57.1782 77.2755 57.221 77.2581 57.253 77.2271C57.285 77.196 57.3037 77.1537 57.305 77.1092V76.9176C57.3027 76.8738 57.2846 76.8323 57.254 76.8007C57.2234 76.7692 57.1824 76.7499 57.1387 76.7463C57.0681 76.7463 56.7254 76.6757 56.6347 76.6505C56.544 76.6253 56.3525 76.585 56.3323 76.0911V72.1197L58.706 76.9882Z" fill="white"/>
<path d="M19.5184 75.1539C19.5184 74.6499 19.5184 73.9192 19.5184 73.138V73.0221C19.5184 72.5181 19.3571 72.5181 19.216 72.4627C19.0918 72.4226 18.9656 72.389 18.838 72.3619C18.7952 72.3593 18.7549 72.3409 18.725 72.3101C18.6952 72.2793 18.6779 72.2384 18.6768 72.1955V72.004C18.6767 71.9594 18.6941 71.9166 18.7251 71.8846C18.7562 71.8526 18.7985 71.834 18.8431 71.8327H21.4334C21.478 71.834 21.5203 71.8526 21.5513 71.8846C21.5824 71.9166 21.5997 71.9594 21.5997 72.004V75.3807C21.5997 76.1568 21.9474 76.3887 22.5119 76.3887C23.0763 76.3887 23.419 76.172 23.419 75.3807V73.017C23.419 72.5131 23.2577 72.5131 23.1166 72.4576C22.9755 72.4022 22.6983 72.3669 22.6127 72.3568C22.5698 72.3543 22.5295 72.3358 22.4997 72.305C22.4698 72.2742 22.4526 72.2334 22.4514 72.1905V71.999C22.4514 71.9544 22.4687 71.9116 22.4998 71.8796C22.5308 71.8476 22.5731 71.8289 22.6177 71.8276H25.3189C25.3643 71.8276 25.4079 71.8457 25.4401 71.8778C25.4722 71.91 25.4902 71.9535 25.4902 71.999V76.0712C25.4902 76.5751 25.6465 76.5751 25.7876 76.6306C25.9287 76.686 26.2059 76.7163 26.2915 76.7263C26.3353 76.7299 26.3763 76.7493 26.4068 76.7808C26.4374 76.8123 26.4555 76.8538 26.4578 76.8977V77.1094C26.4565 77.1539 26.4379 77.1962 26.4059 77.2273C26.3739 77.2583 26.3311 77.2757 26.2865 77.2757H23.8171C23.7725 77.2757 23.7297 77.2583 23.6977 77.2273C23.6657 77.1962 23.6471 77.1539 23.6458 77.1094V76.6054C23.4791 76.8692 23.2424 77.0815 22.9621 77.2185C22.6817 77.3556 22.3688 77.412 22.0583 77.3815C19.4831 77.3815 19.5385 75.92 19.5385 75.1539" fill="white"/>
<path d="M36.9652 75.1539C36.9652 74.6499 36.9652 73.9192 36.9652 73.138V73.0221C36.9652 72.5181 36.8089 72.5181 36.6678 72.4627C36.5267 72.4072 36.2495 72.3719 36.1639 72.3619C36.1205 72.3594 36.0796 72.3411 36.0489 72.3105C36.0183 72.2798 36 72.2389 35.9976 72.1955V72.004C35.9976 71.9586 36.0156 71.915 36.0477 71.8829C36.0799 71.8507 36.1235 71.8327 36.1689 71.8327H38.8701C38.9147 71.834 38.957 71.8526 38.988 71.8846C39.0191 71.9166 39.0364 71.9594 39.0364 72.004V75.3807C39.0364 76.1568 39.3841 76.3887 39.9435 76.3887C40.5029 76.3887 40.8557 76.172 40.8557 75.3807V73.017C40.8557 72.5131 40.6944 72.5131 40.5533 72.4576C40.4122 72.4022 40.135 72.3669 40.0494 72.3568C40.0065 72.3543 39.9662 72.3358 39.9364 72.305C39.9065 72.2742 39.8893 72.2334 39.8881 72.1905V71.999C39.8881 71.9544 39.9054 71.9116 39.9365 71.8796C39.9675 71.8476 40.0098 71.8289 40.0544 71.8276H42.7556C42.8011 71.8276 42.8446 71.8457 42.8768 71.8778C42.9089 71.91 42.927 71.9535 42.927 71.999V76.0712C42.927 76.5751 43.0832 76.5751 43.2243 76.6306C43.3654 76.686 43.6426 76.7163 43.7282 76.7263C43.772 76.7299 43.813 76.7493 43.8436 76.7808C43.8741 76.8123 43.8923 76.8538 43.8945 76.8977V77.1094C43.8932 77.1539 43.8746 77.1962 43.8426 77.2273C43.8106 77.2583 43.7678 77.2757 43.7232 77.2757H41.2488C41.2047 77.2757 41.1624 77.2582 41.1312 77.227C41.1 77.1958 41.0825 77.1535 41.0825 77.1094V76.6054C40.9158 76.8692 40.6791 77.0815 40.3988 77.2185C40.1185 77.3556 39.8056 77.412 39.495 77.3815C36.9198 77.3815 36.9752 75.92 36.9752 75.1539" fill="white"/>
<path d="M77.2313 76.0707V73.0166C77.2313 72.5126 77.07 72.5126 76.9289 72.4572C76.7878 72.4017 76.5106 72.3665 76.4249 72.3564C76.3821 72.3539 76.3418 72.3354 76.3119 72.3046C76.2821 72.2738 76.2649 72.2329 76.2637 72.1901V71.9985C76.2637 71.954 76.281 71.9111 76.3121 71.8791C76.3431 71.8471 76.3854 71.8285 76.43 71.8272H78.9044C78.9494 71.8285 78.9923 71.8469 79.0242 71.8788C79.056 71.9107 79.0745 71.9535 79.0757 71.9985V72.5025C79.2416 72.2379 79.4781 72.025 79.7587 71.8878C80.0392 71.7506 80.3525 71.6947 80.6632 71.7264C83.2334 71.7264 83.183 73.1829 83.183 73.949C83.183 74.4529 83.183 75.1887 83.183 75.9649V76.0808C83.183 76.5848 83.3443 76.5848 83.4854 76.6402C83.6265 76.6957 83.9036 76.7259 83.9893 76.736C84.0326 76.7397 84.0729 76.7592 84.1027 76.7908C84.1325 76.8224 84.1495 76.8639 84.1506 76.9073V77.1089C84.1506 77.153 84.1331 77.1953 84.1019 77.2265C84.0707 77.2577 84.0284 77.2752 83.9843 77.2752H81.2831C81.243 77.2693 81.2063 77.2493 81.1795 77.2189C81.1528 77.1884 81.1377 77.1495 81.1369 77.1089V73.7272C81.1369 72.9561 80.7892 72.7192 80.2298 72.7192C79.6704 72.7192 79.3227 72.941 79.3227 73.7272V76.0959C79.3227 76.5999 79.4789 76.5999 79.62 76.6553C79.7611 76.7108 80.0383 76.741 80.124 76.7511C80.1677 76.7547 80.2087 76.774 80.2393 76.8056C80.2699 76.8371 80.288 76.8786 80.2903 76.9224V77.1089C80.289 77.1535 80.2703 77.1958 80.2383 77.2268C80.2064 77.2579 80.1635 77.2753 80.1189 77.2752H76.4653C76.4211 77.2752 76.3788 77.2577 76.3477 77.2265C76.3165 77.1953 76.2989 77.153 76.2989 77.1089V76.9174C76.3 76.874 76.3171 76.8325 76.3468 76.8009C76.3766 76.7693 76.417 76.7498 76.4602 76.7461C76.5308 76.7461 76.8735 76.6755 76.9642 76.6503C77.0549 76.6251 77.2464 76.5898 77.2665 76.0909L77.2313 76.0707Z" fill="white"/>
<path d="M69.0771 73.9441C69.0771 73.3847 68.9561 72.7043 68.0389 72.7043C67.1217 72.7043 67.031 73.2839 66.9605 73.9441H69.0771ZM70.216 75.7987C70.2191 75.7618 70.2191 75.7247 70.216 75.6878C70.2197 75.6446 70.2393 75.6042 70.2709 75.5745C70.3025 75.5447 70.344 75.5277 70.3874 75.5266H70.5789C70.6007 75.5266 70.6223 75.5309 70.6425 75.5392C70.6627 75.5476 70.681 75.5598 70.6965 75.5753C70.7119 75.5907 70.7241 75.6091 70.7325 75.6293C70.7409 75.6494 70.7452 75.6711 70.7452 75.6929V76.8823C70.7452 76.978 70.6746 77.0234 70.5839 77.0536C69.7795 77.2831 68.9459 77.3934 68.1095 77.3812C66.0533 77.3812 65.0605 76.4993 65.0605 74.6496C65.0605 73.2183 65.5645 71.7266 68.1599 71.7266C71.0475 71.7266 70.9115 73.7979 70.8964 74.6093C70.8964 74.6539 70.879 74.6968 70.848 74.7287C70.8169 74.7607 70.7746 74.7794 70.7301 74.7807H66.9453C66.9453 75.7887 67.3183 76.5194 68.6285 76.5194C69.0792 76.5248 69.527 76.4462 69.9489 76.2876C69.9993 76.2677 70.0436 76.2349 70.0772 76.1924C70.1108 76.1499 70.1326 76.0993 70.1404 76.0457C70.1404 76.0003 70.1807 75.8794 70.2009 75.7987" fill="white"/>
<path d="M12.9114 74.3623C13.622 74.3623 14.2721 74.7504 14.2721 75.2292C14.2574 75.3936 14.1946 75.5501 14.0915 75.6792C13.9884 75.8082 13.8497 75.9041 13.6926 75.9549C13.647 75.9751 13.6079 76.0074 13.5795 76.0482C13.5511 76.0891 13.5344 76.137 13.5313 76.1867C13.5313 76.4488 13.8639 76.6907 14.3175 76.6907C14.5021 76.6928 14.6843 76.6477 14.8466 76.5597C15.3959 76.2422 15.406 75.1737 15.406 74.9217V71.2679C15.406 70.7639 15.2447 70.7639 15.1036 70.7084C14.9625 70.653 14.6854 70.6228 14.5997 70.6127C14.5564 70.609 14.5161 70.5894 14.4863 70.5578C14.4566 70.5262 14.4395 70.4847 14.4384 70.4413V70.2498C14.4384 70.228 14.4427 70.2063 14.4511 70.1862C14.4594 70.166 14.4717 70.1477 14.4871 70.1322C14.5026 70.1168 14.5209 70.1045 14.5411 70.0962C14.5613 70.0878 14.5829 70.0835 14.6047 70.0835H18.2584C18.303 70.0835 18.3458 70.1008 18.3778 70.1319C18.4098 70.1629 18.4284 70.2052 18.4298 70.2498V70.4413C18.4275 70.4852 18.4093 70.5267 18.3788 70.5582C18.3482 70.5897 18.3072 70.6091 18.2634 70.6127C18.1929 70.6127 17.8502 70.6832 17.7595 70.7084C17.6688 70.7336 17.4773 70.7689 17.4622 71.2679V74.9268C17.4866 75.2797 17.4353 75.6337 17.3117 75.9652C17.188 76.2966 16.9949 76.5977 16.7452 76.8484C16.4956 77.099 16.1952 77.2933 15.8642 77.4182C15.5333 77.5431 15.1794 77.5958 14.8265 77.5727C12.2311 77.5727 11.6616 76.3782 11.6616 75.5819C11.6616 75.2585 11.7901 74.9483 12.0188 74.7195C12.2475 74.4908 12.5577 74.3623 12.8812 74.3623" fill="white"/>
</g>
</g>
</g>
</g>
<defs>
<clipPath id="clip0_1_32">
<rect width="100" height="100" fill="white"/>
</clipPath>
<clipPath id="clip1_1_32">
<rect width="100" height="100" fill="white"/>
</clipPath>
<clipPath id="clip2_1_32">
<rect width="100" height="100" fill="white"/>
</clipPath>
</defs>
</svg>
