<svg width="39" height="39" viewBox="0 0 39 39" fill="none" xmlns="http://www.w3.org/2000/svg">
<mask id="mask0_1_466" style="mask-type:luminance" maskUnits="userSpaceOnUse" x="0" y="0" width="39" height="39">
<path d="M38.2857 0H0V38.2857H38.2857V0Z" fill="white"/>
</mask>
<g mask="url(#mask0_1_466)">
<path d="M19.1505 38.3017C29.7279 38.3017 38.302 29.7275 38.302 19.1508C38.302 8.57409 29.7279 0 19.1505 0C8.57409 0 0 8.57409 0 19.1508C0 29.7275 8.57409 38.3017 19.1505 38.3017Z" fill="url(#paint0_linear_1_466)"/>
<path fill-rule="evenodd" clip-rule="evenodd" d="M8.65852 18.9436C14.2394 16.5198 17.9551 14.9092 19.8205 14.1279C25.1308 11.9115 26.2468 11.5288 26.9646 11.5128C27.1235 11.5128 27.4748 11.5447 27.7141 11.7361C27.9046 11.8956 27.9524 12.1028 27.985 12.2622C28.0165 12.4217 28.0481 12.7566 28.0165 13.0117C27.7294 16.0414 26.4861 23.3924 25.8477 26.7729C25.5768 28.2081 25.0504 28.6863 24.5402 28.7342C23.4242 28.8299 22.579 28.0007 21.5108 27.2991C19.8205 26.1988 18.8797 25.5132 17.2372 24.4289C15.3401 23.1851 16.5672 22.4995 17.6516 21.3832C17.9388 21.0962 22.8346 16.6314 22.9303 16.2328C22.9456 16.1849 22.9456 15.9936 22.8346 15.8979C22.7226 15.8022 22.5627 15.8341 22.4354 15.866C22.2603 15.8979 19.5812 17.6838 14.3667 21.2078C13.602 21.734 12.9157 21.9892 12.2945 21.9732C11.6082 21.9572 10.3008 21.5906 9.31225 21.2716C8.1163 20.8889 7.15954 20.6817 7.23927 20.0119C7.28712 19.6611 7.76551 19.3103 8.65852 18.9436Z" fill="white"/>
</g>
<defs>
<linearGradient id="paint0_linear_1_466" x1="19.1352" y1="0" x2="19.1352" y2="37.9987" gradientUnits="userSpaceOnUse">
<stop stop-color="#2AAAEC"/>
<stop offset="1" stop-color="#229ED9"/>
</linearGradient>
</defs>
</svg>
