<svg width="212" height="154" viewBox="0 0 212 154" fill="none" xmlns="http://www.w3.org/2000/svg">
<g clip-path="url(#clip0_10_273)">
<g clip-path="url(#clip1_10_273)">
<path d="M118.526 18.6898C118.152 18.8144 117.778 18.9391 117.155 19.0637C117.902 18.8144 118.401 18.3159 118.526 17.942C118.65 17.8174 118.65 17.6927 118.65 17.6927C118.899 17.1942 119.398 16.3218 119.149 14.5769C118.152 8.7192 93.3498 4.60633 92.9759 26.0431C92.8513 29.7821 94.3469 33.3965 97.0888 33.895C97.4627 34.5181 97.8366 35.2659 97.8366 36.0137C97.0888 36.0137 96.4656 36.3876 96.0917 37.0108C95.3439 36.8862 94.2222 36.6369 93.3498 35.7645L91.9788 37.1354C91.9788 37.1354 92.9759 38.1325 95.7178 37.7586C94.5961 38.5064 92.8513 39.3788 90.8572 39.2542L90.6079 42.37C90.6079 42.37 92.9759 42.6193 96.341 39.0049C96.4656 39.2542 96.7149 39.5034 97.0888 39.7527C96.7149 41.2483 96.341 42.6193 94.8454 42.9932C90.3586 44.2395 89.7355 47.8538 91.231 49.2248C90.6079 52.5899 92.9759 52.5899 93.1005 52.4652C92.3527 49.9726 98.0858 48.8509 98.9583 45.6104C99.4568 43.8656 98.9583 41.9961 98.709 41.1237C98.5844 40.7498 98.4597 40.002 98.9583 39.6281C99.3322 39.3788 99.4568 39.2542 99.7061 39.0049L100.205 38.3818L99.9553 39.1295C99.4568 41.3729 101.451 42.7439 102.074 43.3671C102.199 43.6163 102.323 43.6163 102.323 43.6163C107.433 47.4799 115.908 52.9638 116.407 51.7174C116.531 51.4682 116.656 51.2189 116.656 50.9696V50.845C117.404 48.477 118.401 43.9902 116.781 43.4917C115.285 43.4917 114.787 40.3759 113.416 41.3729C113.042 40.999 112.792 40.002 113.042 39.1295C113.042 39.1295 111.422 39.1295 109.053 37.5093C112.045 38.631 115.285 38.0079 115.908 38.0079C117.03 37.8832 118.027 37.1354 117.653 35.6398C117.279 34.2689 118.526 34.892 118.775 34.1442C118.899 33.895 118.775 33.7703 118.775 33.6457C118.775 33.5211 118.775 33.6457 118.65 33.5211C118.401 33.3965 118.027 33.3965 118.027 33.1472C118.152 32.7733 118.65 32.7733 118.899 32.6487C119.273 32.524 119.398 32.2748 119.149 31.7762C118.899 31.4023 118.899 30.9038 119.024 30.7792C119.149 30.6545 119.273 30.7792 119.523 30.7792C119.772 30.7792 120.021 30.9038 120.27 30.7792C120.644 30.6545 121.143 29.7821 120.644 29.1589C119.647 27.9126 119.149 26.7909 118.899 26.2924H118.775C118.65 26.2924 118.401 26.417 118.401 26.2924C118.401 26.2924 118.65 26.0431 118.899 25.6692C119.772 23.5505 119.149 20.8086 118.526 18.6898ZM95.5932 142.325C95.2193 142.325 94.7208 142.325 94.2222 142.076C93.3498 141.702 92.7266 141.328 91.8542 140.83C92.3527 140.705 93.1005 140.207 93.5991 139.708C94.7208 138.711 95.4685 136.966 95.4685 134.972C95.4685 132.853 94.5961 130.984 93.1005 130.111C92.2281 129.613 91.3557 129.364 90.234 129.364C88.9877 129.364 87.866 129.613 86.8689 130.361C85.3733 131.358 84.2516 133.227 84.2516 135.471C84.2516 137.215 84.7502 138.711 85.7472 139.833C86.6196 140.705 87.9906 141.328 89.6108 141.328H89.8601C91.231 142.45 92.2281 143.198 93.2252 143.821C93.8483 144.195 94.2222 144.195 94.4715 144.195C94.97 144.195 96.2163 143.946 97.0888 143.696C97.0888 143.322 96.9641 142.824 96.9641 142.45C96.7149 142.325 95.9671 142.325 95.5932 142.325ZM87.7413 139.085C86.9935 138.212 86.6196 137.091 86.6196 135.221C86.6196 133.476 87.2428 131.981 87.866 131.233C88.3645 130.734 89.1123 130.361 90.1094 130.361C90.9818 130.361 91.6049 130.61 92.2281 131.358C92.9759 132.23 93.3498 133.726 93.3498 135.346C93.3498 137.091 92.8513 138.337 92.2281 139.085C91.7296 139.708 90.9818 140.082 90.1094 140.082C89.1123 139.957 88.3645 139.708 87.7413 139.085ZM104.941 129.364V130.485H106.312C106.312 130.485 106.436 130.485 106.436 130.61V136.094C106.436 137.589 106.062 138.586 105.688 138.96C105.315 139.334 104.816 139.708 103.944 139.708C102.947 139.708 102.448 139.334 102.074 138.96C101.576 138.337 101.326 137.714 101.326 136.094V130.485H102.697V129.364H98.0858V130.485H99.0829C99.2075 130.485 99.2075 130.485 99.2075 130.61V136.218C99.2075 137.714 99.4568 138.96 100.454 139.957C101.202 140.705 102.323 141.079 103.694 141.079C105.19 141.079 106.187 140.58 106.685 139.957C107.309 139.334 107.932 138.088 107.932 135.969V130.485H108.929V129.364C108.929 129.364 104.941 129.364 104.941 129.364ZM72.2869 139.334C72.1623 139.583 72.1623 139.583 71.913 139.708C71.6637 139.708 71.1652 139.833 69.6696 139.833C68.9218 139.833 68.9218 139.833 68.9218 139.459V130.61H70.2928V129.488H65.6814V130.61H66.8031V139.833C66.8031 139.833 66.8031 139.957 66.6784 139.957H65.5567V141.079H73.4086C73.6579 140.082 73.9071 138.836 74.1564 137.839C73.7825 137.714 73.284 137.589 72.9101 137.589L72.2869 139.334ZM76.7737 129.364V130.485H78.02V139.708C78.02 139.708 78.02 139.833 77.8954 139.833H76.7737V140.954H81.5097V139.833H80.1388V130.485H81.3851V129.364C81.3851 129.364 76.7737 129.364 76.7737 129.364ZM118.899 139.334C118.775 139.583 118.775 139.583 118.526 139.708C118.276 139.833 117.529 139.833 116.282 139.833C115.41 139.833 115.285 139.833 115.285 139.459V135.72H117.529C117.778 135.72 117.902 135.844 117.902 136.094L118.027 136.966H119.273V135.221V133.476H118.027L117.902 134.224C117.902 134.473 117.778 134.598 117.529 134.598H115.285V130.61H115.659C116.781 130.61 117.653 130.61 118.027 130.734C118.276 130.734 118.401 130.859 118.401 131.108L118.65 132.604C119.024 132.604 119.523 132.479 119.897 132.479C119.897 131.482 119.772 130.485 119.772 129.613H112.169V130.734H113.416V139.957C113.416 139.957 113.416 140.082 113.291 140.082H112.169V141.204H120.146C120.395 140.207 120.644 139.209 120.769 138.212C120.395 138.088 119.897 138.088 119.523 137.963L118.899 139.334ZM146.568 139.708C146.319 139.708 146.194 139.583 145.82 138.711C144.948 136.966 144.574 135.969 143.701 135.595V135.471C145.072 134.972 146.069 133.85 146.069 132.355C146.069 131.108 145.072 129.862 143.701 129.613C142.704 129.364 142.206 129.364 141.209 129.364H137.47V130.485H138.591V139.708H137.47V140.83H141.956V139.708H140.71V136.218H141.458C142.081 136.218 142.455 136.468 142.829 136.966C143.327 137.839 144.325 140.082 144.823 140.954H147.69V139.833L146.568 139.708ZM141.209 135.097H140.461V130.485C140.586 130.485 140.835 130.361 141.333 130.361C142.704 130.361 143.826 131.233 143.826 132.729C143.826 133.975 143.078 135.097 141.209 135.097ZM130.116 129.364V130.485H131.487C131.487 130.485 131.612 130.485 131.612 130.61V136.094C131.612 137.589 131.238 138.586 130.864 138.96C130.49 139.334 129.992 139.708 129.119 139.708C128.122 139.708 127.624 139.334 127.25 138.96C126.751 138.337 126.502 137.714 126.502 136.094V130.485H127.873V129.364H123.386V130.485H124.383C124.508 130.485 124.508 130.485 124.508 130.61V136.218C124.508 137.714 124.757 138.96 125.754 139.957C126.502 140.705 127.624 141.079 128.995 141.079C130.49 141.079 131.487 140.58 131.986 139.957C132.609 139.334 133.232 138.088 133.232 135.969V130.485H134.229V129.364H130.116ZM66.9277 87.3623C61.4439 87.3623 57.5803 83.0002 57.5803 77.5164C57.5803 72.1572 61.4439 67.6704 66.9277 67.6704C72.4115 67.6704 76.2751 72.1572 76.2751 77.5164C76.2751 83.0002 72.4115 87.3623 66.9277 87.3623ZM66.9277 61.8127C57.7049 61.8127 50.9747 68.9167 50.9747 77.641C50.9747 86.4899 57.7049 93.4693 66.9277 93.4693C76.1505 93.4693 82.8807 86.4899 82.8807 77.641C82.8807 68.7921 76.1505 61.8127 66.9277 61.8127ZM124.134 83.0002L128.247 73.1542L132.235 83.0002H124.134ZM129.743 62.3112H126.502L113.291 92.7215H120.021L122.389 87.487H133.731L136.223 92.7215H142.954L129.743 62.3112ZM159.904 76.8932H155.292V67.795H159.779C162.77 67.795 164.764 69.2906 164.764 72.4064C164.764 75.3976 162.77 76.8932 159.904 76.8932ZM165.512 81.0061C168.752 79.6351 171.245 76.7686 171.245 72.2818C171.245 65.8009 166.509 62.3112 159.53 62.3112H148.811V92.7215H155.168V82.1278H159.53L164.889 92.7215H171.744L165.512 81.0061ZM174.984 62.3112V67.795H183.459V92.7215H189.94V67.795H198.54V62.3112H174.984ZM109.801 62.3112H86.9935V67.795H101.576L86.9935 87.8609V92.7215H109.801V87.2377H94.4715L109.801 66.9226V62.3112ZM38.5115 62.3112L30.4104 80.009L22.3092 62.3112H17.5732L13.4603 92.7215H19.692L21.9353 75.8962L30.4104 92.7215L38.8854 75.8962L41.1288 92.7215H47.3604L43.2475 62.3112H38.5115Z" fill="black"/>
<path d="M184.83 105.185C184.456 105.06 184.207 105.184 183.958 105.558L182.088 108.55C180.842 110.419 179.346 112.039 177.352 113.161C176.23 113.784 175.109 114.158 173.862 113.909C172.616 113.784 171.245 112.538 170.996 111.541C171.993 110.544 172.99 109.796 173.862 108.799C175.109 107.303 175.732 105.683 175.483 103.689C175.233 101.944 174.361 100.947 172.99 100.573C171.868 100.324 170.871 100.448 169.999 101.072C168.005 102.193 167.008 103.689 166.384 105.808C165.761 107.553 166.26 109.671 166.384 110.17C166.135 109.547 166.758 111.416 167.008 111.915C167.132 112.039 167.132 112.164 167.257 112.289C165.886 113.41 165.014 114.033 163.643 114.657C161.773 115.529 159.156 115.778 158.159 113.161C157.785 112.289 157.785 111.416 157.785 110.419C157.785 107.802 158.159 105.309 158.533 102.816C158.657 101.695 158.657 101.695 159.779 101.695C160.776 101.695 161.773 101.57 162.77 101.446C163.518 101.321 163.767 100.947 163.767 100.199H159.031C159.156 99.4514 159.28 100.199 159.405 99.4514C159.53 98.2051 159.654 97.5819 159.405 96.3356C159.28 95.8371 159.031 95.3385 158.533 95.0893C157.785 94.7154 156.912 94.5907 156.04 94.5907C155.666 97.208 155.541 97.5819 155.168 100.075C153.921 99.9499 152.8 100.075 151.678 99.9499C151.678 100.324 151.553 100.324 151.553 100.698C151.553 101.321 151.802 101.695 152.426 101.695H154.794C154.669 102.816 154.544 103.814 154.295 104.811L154.046 108.051V108.799C153.049 110.17 151.429 111.79 150.307 113.036C149.808 113.66 149.185 114.158 148.437 114.407C147.44 114.781 146.817 114.158 146.443 113.286C146.319 112.912 146.069 110.918 146.069 110.544C145.945 109.048 146.069 107.677 146.443 106.306C146.568 105.932 146.443 105.558 146.194 105.185C145.197 103.44 142.954 101.944 141.084 102.318C138.218 102.816 135.85 104.811 134.603 107.677C133.98 109.048 133.731 110.668 133.731 111.292C133.108 112.164 132.609 112.662 131.612 113.41C130.864 113.909 130.241 114.283 128.995 114.657C127.25 115.155 125.63 114.657 124.882 113.036C124.383 112.039 124.259 110.918 124.134 109.796C124.009 109.297 124.134 108.799 124.383 108.3C125.754 105.558 126.751 104.312 127.873 101.446C128.496 99.8253 128.995 98.2051 129.119 96.4602C129.244 95.0893 128.621 93.9676 127.624 93.7183C126.876 93.469 126.128 93.7183 125.38 94.2168C124.259 94.9646 123.511 95.9617 122.888 96.9588C120.894 100.324 120.52 102.567 120.395 106.431C120.395 106.68 120.395 108.051 120.27 108.176C119.647 108.799 118.775 109.297 117.529 109.547C116.158 109.921 114.911 110.045 113.291 109.921C113.291 109.921 113.291 109.547 113.416 109.422C113.54 108.3 113.54 107.303 113.291 106.182C112.668 102.692 110.175 100.822 107.059 101.695C105.439 102.193 104.317 103.315 103.944 105.185C103.944 105.309 103.694 105.434 103.57 105.558C102.573 105.808 101.949 106.431 101.451 107.428C101.077 108.051 100.703 108.674 100.329 109.173C99.7061 109.921 99.4568 110.294 98.709 110.918C97.2134 112.413 95.2193 113.66 93.2252 114.407C91.1064 115.28 89.3616 114.407 88.6138 112.164C88.3645 111.416 88.2399 110.668 88.1152 109.921C87.9906 108.176 88.2399 106.431 89.3616 105.06C89.9847 104.312 90.7325 103.814 91.605 103.938C92.4774 104.063 92.9759 104.686 93.4744 105.309C94.0976 106.182 94.0976 106.182 95.0947 105.558L95.2193 105.434C95.5932 105.06 95.7178 104.811 95.4686 104.312C95.2193 103.689 94.7208 103.315 94.2222 102.941C90.9818 100.947 86.3704 102.567 84.7502 106.431C84.5009 107.179 84.2516 107.802 84.127 108.425C83.7531 109.048 83.0053 109.547 82.0083 109.921C80.7619 110.419 79.5156 110.419 77.8954 110.17C77.5215 110.045 77.6461 109.796 77.6461 109.297C77.7707 108.051 77.7707 106.929 77.3968 105.808C76.7737 103.689 75.652 102.193 73.5332 101.819C71.4145 101.446 68.6726 102.443 68.174 105.434C68.174 105.558 67.9248 105.683 67.8001 105.808C66.9277 106.057 66.1799 106.68 65.806 107.553C65.5568 108.176 65.4321 108.799 65.3075 109.422C65.1829 109.671 63.6873 111.042 62.5656 112.039C61.1946 113.286 60.4468 113.909 59.5744 114.283C58.4527 114.906 57.9542 114.033 58.3281 112.289C58.702 109.921 58.8266 108.799 59.0759 107.179C59.0759 106.805 59.3251 105.434 59.0759 104.561C58.8266 103.938 58.2034 103.44 57.9542 103.315C56.8325 102.443 54.963 102.941 53.7167 103.689C52.7196 104.437 51.5979 106.057 51.0994 106.929C50.2269 108.55 50.1023 109.547 49.853 110.419C49.7284 110.793 49.2299 112.164 49.2299 112.164C49.2299 112.164 49.1053 111.291 49.2299 108.55C49.2299 108.176 49.4792 106.182 49.4792 106.182C49.4792 106.182 49.6038 105.683 49.7284 105.558C51.3486 103.19 52.0964 101.944 52.8442 99.576C53.3428 98.0804 53.7167 95.9617 53.4674 94.84C53.0935 93.469 51.8472 92.5966 50.7255 93.5937C49.8531 94.2168 49.3545 95.0893 48.856 96.0863C47.7343 98.4543 46.7372 102.443 46.3633 104.935C46.2387 105.932 46.2387 106.929 45.4909 107.802C44.3692 108.923 43.3722 110.294 42.1258 111.416C40.8795 112.662 39.01 114.158 37.2652 114.781C35.0218 115.654 33.4016 114.781 32.6538 112.538C32.1552 111.042 32.0306 109.547 32.4045 107.926C32.5291 107.054 32.903 106.182 33.5262 105.434C34.6479 104.063 36.2681 103.938 37.3898 105.309C37.7637 105.683 38.013 106.057 38.2622 106.555L39.3839 105.808C39.8824 105.434 39.8824 105.185 39.6332 104.561C39.3839 103.938 38.8854 103.564 38.3869 103.19C36.1435 101.819 33.1523 102.193 31.0335 103.938C28.7901 105.808 27.7931 109.297 28.6655 112.164C29.5379 114.781 31.1582 116.277 33.6508 116.775C35.5203 117.149 37.2652 116.775 38.8854 115.778C41.7519 114.158 45.4909 109.796 45.6155 109.671C45.7402 109.547 45.8648 109.297 45.8648 109.297C45.7402 111.167 45.7402 111.541 45.8648 112.662C45.9894 113.909 46.2387 114.781 46.8619 115.778C47.485 116.775 48.4821 116.775 49.2299 116.526C50.1023 116.277 49.9777 115.28 50.2269 114.407C50.8501 111.665 51.224 110.544 51.4733 109.547C51.8472 108.051 53.2181 105.06 55.4615 104.561C57.2064 104.187 55.8354 109.173 55.3369 111.416C54.8384 113.535 54.963 115.28 55.8354 116.277C56.3339 116.9 57.7049 116.775 58.3281 116.526C59.0759 116.277 59.8237 115.778 60.4468 115.404C62.1917 114.407 64.9336 111.665 65.0582 111.416C65.0582 111.665 65.1829 112.164 65.3075 112.413C65.6814 113.66 66.3045 114.781 67.3016 115.654C70.0435 117.772 74.0318 116.9 75.9013 113.784C76.2752 113.161 76.5244 112.538 76.8983 111.915C78.5185 112.039 79.8895 111.915 81.0112 111.541C82.0083 111.167 82.756 110.918 83.7531 110.045C83.7531 110.793 83.7531 111.167 83.8777 111.79C84.5009 114.158 85.7472 115.778 88.1152 116.526C90.234 117.274 92.3527 116.9 94.3469 115.778C96.5903 114.407 97.8366 113.41 99.9553 111.416C100.08 111.291 100.329 111.167 100.454 110.918C100.454 111.167 100.454 111.416 100.578 111.541C100.828 113.535 101.7 115.03 103.445 116.028C106.312 117.648 109.801 116.651 111.546 113.535C111.92 113.036 112.045 112.538 112.419 111.79C116.033 111.665 117.902 110.918 119.897 109.422C120.021 110.294 120.146 110.668 120.395 111.541C120.644 112.413 120.894 113.286 121.268 114.033C122.14 115.903 124.259 116.9 126.253 116.775C127.125 116.775 127.873 116.651 128.745 116.401C130.989 115.404 131.986 114.657 133.606 113.036C133.855 114.657 134.603 115.778 136.223 116.526C137.719 117.149 139.09 116.651 140.336 115.903C141.707 115.03 142.829 113.66 143.577 112.039V112.538C143.701 114.781 144.823 116.401 146.443 116.651C148.064 116.775 149.31 115.903 150.182 115.155C151.553 114.033 152.8 112.289 153.921 110.793C153.921 111.416 154.046 112.164 154.17 112.787C154.794 114.906 155.417 116.277 157.536 117.025C159.53 117.772 162.272 117.149 164.141 116.277C165.387 115.654 166.26 115.155 167.631 114.033C167.755 113.909 167.88 113.909 168.129 113.66C170.497 116.277 174.735 117.274 177.975 115.155C180.717 113.41 182.711 110.918 184.332 108.051C184.705 107.428 184.83 106.68 185.079 106.057C185.204 105.683 185.204 105.309 184.83 105.185ZM50.2269 100.698C50.4762 99.4514 50.7255 96.8341 51.0994 95.5878C51.224 95.2139 51.3486 94.3415 51.8472 94.3415C52.0964 94.3415 52.2211 94.4661 52.3457 94.84C52.4703 95.3385 52.4703 96.5849 52.3457 97.208C51.9718 99.3268 51.4733 100.448 50.3516 102.443C50.2269 102.692 49.9777 103.44 49.9777 103.44C50.1023 102.318 50.1023 101.819 50.2269 100.698ZM73.4086 113.535C73.1593 114.033 72.9101 114.407 72.5362 114.781C71.7884 115.654 70.5421 115.529 69.7943 114.657C68.5479 113.286 68.7972 110.17 70.2928 109.173C70.4174 109.173 70.4174 109.048 70.4174 108.923C70.5421 107.926 70.6667 107.054 70.0435 106.182C69.7943 105.932 69.545 105.808 69.1711 105.558C69.545 104.811 70.0435 104.063 70.7913 103.689C71.6637 103.19 72.7854 103.44 73.4086 104.437C73.9071 105.185 74.1564 106.057 74.281 107.054C74.5303 109.297 74.281 111.416 73.4086 113.535ZM108.804 113.66C108.555 114.033 108.306 114.532 108.056 114.781C107.309 115.654 106.187 115.529 105.439 114.657C104.193 113.286 104.317 110.17 105.813 109.173C105.938 109.048 106.062 108.923 106.062 108.799C106.062 108.051 106.062 107.428 105.938 106.68C105.813 106.057 105.315 105.808 104.691 105.558C105.19 104.935 105.439 104.437 105.938 103.938C106.935 102.941 108.181 103.19 108.929 104.312C109.552 105.184 109.677 106.182 109.801 107.179C109.801 109.547 109.677 111.665 108.804 113.66ZM124.134 102.816C124.383 100.324 124.383 99.2021 125.256 96.8341C125.38 96.3356 125.754 95.8371 126.004 95.4632C126.253 95.2139 126.502 94.9646 126.876 95.0893C127.25 95.2139 127.499 95.5878 127.374 96.0863C127.25 96.9588 127.25 97.9558 127.001 98.8282C126.253 101.819 125.505 103.19 124.009 105.932C124.009 106.057 123.885 106.057 123.76 106.306C124.009 104.811 124.009 103.814 124.134 102.816ZM143.452 105.185C142.829 107.802 141.832 110.544 140.336 112.538C140.087 112.912 139.588 113.41 139.09 113.66C138.342 114.158 137.594 114.283 137.096 113.66C136.847 113.286 136.722 112.164 136.847 111.541C136.971 110.045 137.968 107.428 139.215 105.683C139.713 105.06 140.71 103.938 141.333 103.564C142.081 103.19 143.078 103.44 143.327 104.187C143.452 104.561 143.577 104.935 143.452 105.185ZM170.747 103.814C170.996 103.315 171.245 102.941 171.619 102.567C172.242 102.069 172.99 102.318 173.364 102.941C173.738 103.564 173.738 104.312 173.613 105.06C173.364 106.431 172.741 107.428 171.993 108.425C171.619 108.923 171.121 109.422 170.497 109.921C170.123 107.802 169.75 105.808 170.747 103.814Z" fill="black"/>
</g>
</g>
<defs>
<clipPath id="clip0_10_273">
<rect width="212" height="153.91" fill="white"/>
</clipPath>
<clipPath id="clip1_10_273">
<rect width="212" height="153.91" fill="white"/>
</clipPath>
</defs>
</svg>
