<svg width="292" height="94" viewBox="0 0 292 94" fill="none" xmlns="http://www.w3.org/2000/svg">
<g clip-path="url(#clip0_10_280)">
<path d="M78.7038 25.2007L67.0178 18.4193L57.0396 8.44113C56.8375 8.27613 56.4828 8.49888 56.4828 8.49888L48.5918 12.4753C48.5423 12.5001 48.4969 12.4423 48.5299 12.3969L50.4274 9.88486C50.5099 9.78174 50.4892 9.62911 50.382 9.55486L39.7974 0.137639C39.6076 -0.0438577 39.29 -0.0562325 39.0879 0.10464L22.9759 13.6097C22.7738 13.7747 22.7202 13.7252 22.8563 13.5066L25.4179 9.36512C25.5416 9.15475 25.5416 9.02275 25.3354 8.86188L22.7325 6.78703C22.5263 6.62616 22.3613 6.63441 22.1592 6.79941C22.1592 6.79941 12.6471 14.2573 10.135 16.4105C7.61878 18.572 0.226896 25.143 0.226896 25.143C0.0288987 25.3121 -0.0577249 25.6462 0.0371486 25.8855C0.0371486 25.8855 0.408393 26.8796 1.06013 28.5502C4.75195 38.4748 9.244 48.9769 16.3801 61.1578C18.8634 65.5591 20.8309 68.7435 22.2994 70.9834C24.8734 73.38 27.5587 73.0046 28.8952 72.8974C28.3755 73.578 26.8616 74.7659 25.2529 75.1413C26.148 75.3847 35.6477 77.9751 38.6507 78.829C39.752 79.1425 40.3006 79.4972 40.3419 80.3717C40.3666 80.8709 40.1604 81.3163 39.8263 81.6257C39.7768 81.6752 39.719 81.7206 39.653 81.766C39.6324 81.7783 39.6118 81.7907 39.5911 81.8072C39.5499 81.8361 39.5045 81.8567 39.4509 81.8815C39.2942 81.964 39.1209 82.0176 38.9394 82.0382C38.5888 82.1001 38.1433 82.1125 37.5617 82.0217C34.996 81.6381 32.6076 82.8756 31.4114 83.6511C33.2676 86.0188 35.2146 88.4112 37.2688 90.8243C38.1227 91.8308 38.8775 92.6929 39.2405 93.1054H39.6943C41.5835 90.9316 43.4521 88.7165 45.1763 86.5839C45.7744 85.8744 48.8887 81.9103 48.8887 81.9103C48.2494 80.2315 47.1109 78.9528 45.8445 77.773C45.8445 77.773 45.7373 77.6699 45.6548 77.5957C43.5428 75.6569 41.1462 73.9451 40.1934 71.0906C39.1828 68.8797 44.3884 63.3399 42.9035 60.8113C42.8045 60.6422 42.623 60.3452 42.3796 59.9616C42.2022 59.6646 42.0166 59.3676 41.8269 59.0747C41.2329 58.1301 40.4986 56.9792 39.8469 55.981C39.3602 55.222 39.4427 54.991 39.6035 54.727C40.4863 53.2709 43.052 50.7217 43.0767 50.7176C42.6353 51.6746 42.5116 53.4689 42.7797 54.3352C43.2995 56.0346 43.9842 57.2185 45.0154 59.2644C45.2299 59.6233 45.6094 60.5019 45.8693 60.8979C44.7143 62.4695 44.9866 65.1713 45.3702 66.1448C45.9848 64.9115 46.6654 63.8761 48.1545 63.2615C48.963 63.4966 50.0314 63.3523 50.7491 63.0965C51.108 62.9975 51.6731 62.7954 51.9866 62.4654C52.3537 62.0818 57.5594 50.5526 57.5594 50.5526C56.9777 50.4783 56.3673 50.2473 56.1445 49.641C55.6743 48.3334 56.029 44.2043 56.0208 44.2084C56.392 45.0169 56.7591 45.8213 57.1221 46.6215C57.0437 46.7659 56.9901 46.9515 56.9901 47.1578C56.9901 47.6239 57.2294 48.0034 57.5181 47.9993C57.5882 47.9993 57.6501 47.9786 57.7079 47.9415C57.8399 48.2344 57.9677 48.519 58.0915 48.8077C58.0915 48.8077 61.5234 43.2638 62.7114 40.6321C63.4085 39.0853 63.8623 37.7075 64.0685 36.5319C63.0497 37.1136 61.7503 37.5219 59.9023 37.8437C59.6878 37.889 59.5435 37.7405 59.7085 37.6415C62.7609 35.6079 63.9118 32.7865 63.392 30.3569C62.8764 28.9709 62.1298 27.6345 61.1646 26.3846C60.7397 27.4406 59.9724 28.4099 58.5328 29.6474C58.405 29.7712 58.2441 29.7217 58.3184 29.5897C59.659 26.7723 59.1516 24.2273 57.5841 22.8165C56.5983 22.0452 55.5216 21.3316 54.3584 20.6798C54.3213 21.645 53.9665 22.6062 53.1127 23.9715C53.0426 24.0911 52.9106 24.0953 52.9353 23.9798C53.2777 21.6203 52.3908 19.8466 50.976 19.0711C49.4002 18.4441 47.7214 17.9326 45.96 17.5531C46.1498 18.3245 46.0755 19.1453 45.6837 20.4158C45.6548 20.5272 45.5558 20.5519 45.5476 20.4571C45.3166 18.4688 44.174 17.2602 42.8416 17.0334C42.7426 17.021 42.6436 17.0086 42.5446 16.9962C42.5199 16.9962 42.4951 16.9921 42.4704 16.988H42.4745C42.3879 16.9756 42.3054 16.9632 42.2187 16.955C31.8528 15.899 22.5758 19.6775 18.752 25.8525C21.8746 23.1919 27.1957 21.4388 33.2305 21.4388C42.8416 21.4388 50.6377 25.8772 50.6377 31.3593C50.6377 32.1183 50.6171 32.6586 50.3655 33.3062C48.4845 38.2149 40.2594 40.8342 29.5634 39.7411C20.7856 38.846 14.2187 35.5461 12.2016 31.8213C12.0448 34.0116 13.1751 36.6268 15.2747 38.8172C9.58637 37.0971 6.59992 29.3876 6.59992 29.3876C6.51742 29.1401 6.59167 28.7771 6.76492 28.5832C6.76492 28.5832 11.5251 23.0888 21.7508 17.7387C28.0455 14.447 37.6359 11.0687 37.6359 11.0687C38.4238 10.7841 39.851 10.5572 41.5752 11.0852C43.8151 11.7741 54.4904 16.0929 57.448 17.7387C67.5335 23.3486 72.438 28.5832 72.438 28.5832C72.6071 28.7771 72.6566 29.0699 72.6112 29.4082C72.5906 29.5484 72.3803 30.2579 72.0503 31.1571C70.6107 34.6716 65.1905 47.6816 60.7067 55.5438C57.4315 61.2692 53.5953 67.2998 49.0496 73.4872C48.3649 74.4566 47.6595 75.4342 48.4226 76.2262C49.1115 76.9398 50.2129 78.2763 50.7326 79.6004L50.8605 79.4395C63.4745 62.3664 70.6024 47.5909 75.8452 34.2921C77.887 29.3381 78.8729 25.9309 78.8729 25.9309C78.9678 25.6875 78.8853 25.3534 78.6832 25.1884L78.7038 25.2007Z" fill="#1D1D1B"/>
<path d="M259.194 65.3831C259.194 65.3831 258.171 62.2275 257.615 60.3506L249.851 34.248H249.208L244.287 42.7784L242.653 45.6205L240.03 50.1579H246.428L250.841 65.3831H259.19H259.194Z" fill="#1D1D1B"/>
<path d="M228.913 34.248H228.274C228.274 34.248 219.484 63.5475 218.931 65.3831H227.292C227.667 63.8486 228.096 62.3595 228.443 61.1591L230.147 55.4048C230.571 53.9529 230.914 52.5875 230.873 52.1626L231.046 52.1214C231.17 52.6741 231.809 53.7837 232.58 55.1037L238.718 66.0637H239.362L243.301 59.2245L228.917 34.248H228.913Z" fill="#1D1D1B"/>
<path d="M198.413 35.5352H216.056V42.5393H205.966V46.9777H213.445L213.416 53.9777H205.966V58.4203H216.122V65.4244H198.413V35.5352Z" fill="#1D1D1B"/>
<path d="M292 50.4721C292 59.1881 284.872 66.2789 275.517 66.2789C266.161 66.2789 259.038 59.1881 259.038 50.4721C259.038 41.7561 266.165 34.6777 275.517 34.6777C284.868 34.6777 292 41.7685 292 50.4721ZM267.234 50.4721C267.234 55.0054 270.905 58.6766 275.517 58.6766C280.128 58.6766 283.795 55.0054 283.795 50.4721C283.795 45.9388 280.128 42.28 275.517 42.28C270.905 42.28 267.234 45.9512 267.234 50.4721Z" fill="#1D1D1B"/>
<path d="M188.773 53.3384C191.5 52.0143 193.212 49.3702 193.212 45.4432C193.212 39.6766 189.409 35.5352 183.56 35.5352H170.706V42.1103H181.637C183.514 42.1103 184.884 43.6077 184.884 45.4432C184.884 47.2788 183.395 48.5988 181.472 48.5988H170.71V60.3054C170.71 61.7945 170.665 64.6118 170.665 65.4286H178.948C178.948 64.6159 178.903 61.7986 178.903 60.3054V54.3242H180.825L187.342 65.4286H195.922L188.769 53.3425L188.773 53.3384Z" fill="#1D1D1B"/>
<path d="M119.726 34.5078H118.868C118.868 34.5078 103.882 64.6982 103.54 65.4242H112.293C112.677 64.4837 113.873 61.8396 113.873 61.8396H120.46L117.062 54.1714L119.169 49.3246H119.338L126.219 65.0406C126.277 65.1767 126.33 65.3087 126.384 65.4242H134.881C134.267 64.2445 134.419 64.5415 119.722 34.5078" fill="#1D1D1B"/>
<path d="M98.0992 43.9465C96.8658 42.28 95.3231 40.8239 93.3184 40.8239C92.2088 40.8239 91.3961 41.5953 91.3961 42.445C91.3961 44.4992 94.0897 45.7367 96.0944 47.102C99.9389 49.7461 103.61 52.0107 103.61 57.0514C103.61 62.5582 99.1716 66.2747 92.9347 66.2747C87.5971 66.2747 83.7114 63.5399 81.5293 59.8687L88.2653 57.2081C89.1316 58.4662 90.6702 60.042 93.0172 60.042C94.6425 60.042 95.7562 59.0148 95.7562 57.732C95.7562 55.8551 93.5741 54.5805 91.0125 52.9099C87.6837 50.732 83.7114 48.0466 83.7114 43.3896C83.7114 38.7325 87.9436 34.6777 93.1492 34.6777C98.0167 34.6777 102.401 37.9571 104.113 41.5169L98.1033 43.9506L98.0992 43.9465Z" fill="#1D1D1B"/>
<path d="M145.379 49.3288L152.99 46.297L148.568 42.8362L138.28 34.7637H137.509V60.2681C137.509 61.7614 137.468 64.5787 137.468 65.3872H145.379V49.3288Z" fill="#1D1D1B"/>
<path d="M157.449 51.5857L149.838 54.6175L154.256 58.0825L164.548 66.1509H165.311V40.6505C165.311 39.1532 165.356 36.34 165.356 35.5273H157.445V51.5857H157.449Z" fill="#1D1D1B"/>
<path d="M91.6478 79.3128C90.8929 80.1007 89.7091 80.5585 88.4551 80.5585C85.91 80.5585 84.3632 78.7683 84.3632 76.5738C84.3632 74.3794 85.9595 72.6758 88.4303 72.6758C89.8163 72.6758 90.7568 73.1543 91.4539 73.8761L90.1752 75.2002C89.6554 74.6764 89.0986 74.4206 88.4262 74.4206C87.3084 74.4206 86.405 75.2126 86.405 76.5738C86.405 77.9351 87.362 78.7683 88.451 78.7683C89.3213 78.7683 89.8122 78.4177 90.3237 77.9392L91.6395 79.3128H91.6478Z" fill="#1D1D1B"/>
<path d="M108.927 76.619C108.927 78.7887 107.145 80.5624 104.81 80.5624C102.476 80.5624 100.702 78.7928 100.702 76.619C100.702 74.4452 102.484 72.6797 104.81 72.6797C107.137 72.6797 108.927 74.4452 108.927 76.619ZM102.748 76.619C102.748 77.7492 103.664 78.665 104.815 78.665C105.965 78.665 106.881 77.7492 106.881 76.619C106.881 75.4888 105.965 74.573 104.815 74.573C103.664 74.573 102.748 75.4888 102.748 76.619Z" fill="#1D1D1B"/>
<path d="M118.452 72.8893H121.38C121.756 72.8893 122.457 72.877 122.659 72.877V74.6424C122.457 74.6424 121.756 74.6342 121.38 74.6342H120.498V75.7397H121.009C121.38 75.7397 122.086 75.7273 122.284 75.7273V77.4969C122.082 77.4969 121.376 77.4845 121.009 77.4845H120.498V79.0602C120.498 79.4356 120.506 80.1368 120.506 80.3348H118.439C118.439 80.1368 118.452 79.4315 118.452 79.0602V72.8811V72.8893Z" fill="#1D1D1B"/>
<path d="M132.233 72.8893H135.166C135.537 72.8893 136.242 72.877 136.445 72.877V74.6424C136.242 74.6424 135.537 74.6342 135.166 74.6342H134.283V75.7397H134.795C135.166 75.7397 135.867 75.7273 136.069 75.7273V77.4969C135.867 77.4969 135.166 77.4845 134.795 77.4845H134.283V79.0602C134.283 79.4356 134.295 80.1368 134.295 80.3348H132.229C132.229 80.1368 132.237 79.4315 132.237 79.0602V72.8811L132.233 72.8893Z" fill="#1D1D1B"/>
<path d="M146.014 72.8893H148.774C149.145 72.8893 149.847 72.877 150.049 72.877V74.6424C149.847 74.6424 149.141 74.6342 148.774 74.6342H147.9V75.7397H148.362C148.737 75.7397 149.438 75.7273 149.64 75.7273V77.4969C149.438 77.4969 148.737 77.4845 148.362 77.4845H147.9V78.5941H148.943C149.314 78.5941 150.016 78.5817 150.218 78.5817V80.3513C150.016 80.3513 149.31 80.339 148.943 80.339H146.01V72.8852L146.014 72.8893Z" fill="#1D1D1B"/>
<path d="M159.73 72.8893H162.494C162.865 72.8893 163.566 72.877 163.768 72.877V74.6424C163.566 74.6424 162.861 74.6342 162.494 74.6342H161.619V75.7397H162.085C162.461 75.7397 163.158 75.7273 163.36 75.7273V77.4969C163.158 77.4969 162.456 77.4845 162.085 77.4845H161.619V78.5941H162.663C163.038 78.5941 163.735 78.5817 163.937 78.5817V80.3513C163.735 80.3513 163.034 80.339 162.663 80.339H159.73V72.8852V72.8893Z" fill="#1D1D1B"/>
<path d="M177.719 80.5167L176.184 77.7818C175.99 77.4518 175.834 77.1713 175.801 77.0352L175.755 77.0435C175.768 77.1507 175.681 77.4931 175.574 77.8561L175.149 79.2957C175.066 79.5927 174.955 79.9681 174.864 80.3475H172.794C172.934 79.8897 173.107 79.3369 173.169 79.1059L175.037 72.5762H175.198L177.36 76.1979C177.677 76.73 177.776 76.9734 177.789 77.0806H177.834C177.847 76.9651 177.97 76.697 178.259 76.1979L180.346 72.5762H180.507L182.446 79.0977C182.582 79.5638 182.838 80.3517 182.838 80.3517H180.755C180.647 80.0011 180.536 79.6422 180.433 79.2874L180.008 77.9138C179.88 77.5178 179.806 77.2415 179.814 77.1342L179.773 77.126C179.736 77.2621 179.604 77.5508 179.389 77.9138L177.884 80.5249H177.723L177.719 80.5167Z" fill="#1D1D1B"/>
<path d="M195.406 72.6348L198.599 79.1852C198.76 79.5152 199.069 80.1256 199.185 80.3443H197.065C196.97 80.1215 196.809 79.7915 196.722 79.6018L196.66 79.4533H193.938L193.88 79.6018C193.806 79.7709 193.645 80.1133 193.546 80.3443H191.364C191.451 80.1669 191.793 79.5152 191.95 79.1852L195.188 72.6348H195.402H195.406ZM195.629 77.9394C195.827 77.9394 195.967 77.9683 196 77.9931L196.021 77.9477C196 77.9394 195.947 77.8941 195.856 77.6796L195.596 77.1392C195.386 76.6813 195.312 76.3843 195.312 76.3307H195.27C195.27 76.3843 195.196 76.6813 194.99 77.1392L194.742 77.6796C194.668 77.8528 194.581 77.9353 194.565 77.9477L194.581 77.9931C194.602 77.9683 194.763 77.9394 194.957 77.9394H195.629Z" fill="#1D1D1B"/>
<path d="M215.392 79.3128C214.637 80.1007 213.457 80.5585 212.199 80.5585C209.65 80.5585 208.107 78.7683 208.107 76.5738C208.107 74.3794 209.708 72.6758 212.182 72.6758C213.564 72.6758 214.501 73.1543 215.206 73.8761L213.927 75.2002C213.403 74.6764 212.851 74.4206 212.182 74.4206C211.061 74.4206 210.157 75.2126 210.157 76.5738C210.157 77.9351 211.114 78.7683 212.203 78.7683C213.078 78.7683 213.564 78.4177 214.076 77.9392L215.396 79.3128H215.392Z" fill="#1D1D1B"/>
<path d="M231.553 79.0696C231.553 79.4449 231.566 80.1462 231.566 80.3442H229.495C229.495 80.1462 229.511 79.4408 229.511 79.0696V77.366H226.764V79.0696C226.764 79.4449 226.772 80.1462 226.772 80.3442H224.706C224.706 80.1462 224.718 79.4408 224.718 79.0696V74.1691C224.718 73.7979 224.706 73.0925 224.706 72.8945H226.772C226.772 73.0967 226.764 73.7979 226.764 74.1691V75.7696H229.511V74.1691C229.511 73.7979 229.495 73.0925 229.495 72.8945H231.566C231.566 73.0967 231.553 73.7979 231.553 74.1691V79.0696Z" fill="#1D1D1B"/>
<path d="M243.454 72.8906C243.454 73.0927 243.441 73.794 243.441 74.1652V79.0657C243.441 79.441 243.454 80.1423 243.454 80.3403H241.387C241.387 80.1423 241.399 79.4369 241.399 79.0657V74.1652C241.399 73.794 241.387 73.0886 241.387 72.8906H243.454Z" fill="#1D1D1B"/>
<path d="M253.485 72.6992L257.639 76.0033C257.982 76.2797 258.019 76.3333 258.233 76.6303L258.279 76.6179C258.258 76.5148 258.204 76.2343 258.204 75.83V74.1677C258.204 73.7965 258.196 73.0911 258.196 72.8931H260.263C260.263 73.0952 260.25 73.7965 260.25 74.1677V80.5366H260.057L255.903 77.1211C255.56 76.8407 255.519 76.7912 255.309 76.49L255.263 76.4983C255.28 76.6014 255.338 76.8819 255.338 77.2862V79.0681C255.338 79.4435 255.346 80.1447 255.346 80.3427H253.279C253.279 80.1447 253.296 79.4394 253.296 79.0681V72.6992H253.485Z" fill="#1D1D1B"/>
<path d="M270.043 72.8893H272.807C273.178 72.8893 273.879 72.877 274.081 72.877V74.6424C273.879 74.6424 273.174 74.6342 272.807 74.6342H271.932V75.7397H272.402C272.774 75.7397 273.471 75.7273 273.677 75.7273V77.4969C273.471 77.4969 272.77 77.4845 272.402 77.4845H271.932V78.5941H272.972C273.343 78.5941 274.048 78.5817 274.246 78.5817V80.3513C274.048 80.3513 273.343 80.339 272.972 80.339H270.043V72.8852V72.8893Z" fill="#1D1D1B"/>
<path d="M287.397 74.9896C287.083 74.573 286.699 74.21 286.2 74.21C285.924 74.21 285.726 74.4039 285.726 74.6184C285.726 75.1299 286.394 75.4393 286.893 75.7775C287.859 76.4375 288.766 77.0026 288.766 78.2607C288.766 79.6385 287.661 80.5624 286.105 80.5624C284.773 80.5624 283.804 79.8818 283.259 78.962L284.806 78.0545C285.082 78.5866 285.54 79.0032 286.126 79.0032C286.53 79.0032 286.807 78.7475 286.807 78.4298C286.807 77.9596 286.262 77.6379 285.623 77.2254C284.794 76.685 283.8 76.0126 283.8 74.8494C283.8 73.6862 284.86 72.6797 286.155 72.6797C287.372 72.6797 288.18 73.4139 288.585 73.88L287.392 74.9896H287.397Z" fill="#1D1D1B"/>
</g>
<defs>
<clipPath id="clip0_10_280">
<rect width="292" height="93.1204" fill="white" transform="translate(0 -0.00585938)"/>
</clipPath>
</defs>
</svg>
