<svg width="50" height="44" viewBox="0 0 50 44" fill="none" xmlns="http://www.w3.org/2000/svg">
<g clip-path="url(#clip0_10_144)">
<g clip-path="url(#clip1_10_144)">
<g clip-path="url(#clip2_10_144)">
<path d="M12.7484 0.402726C12.159 0.663569 11.8402 0.963056 11.5987 1.46542L11.3765 1.97744L11.3958 10.0346L11.4248 18.0917L11.6953 18.4975C11.8402 18.7198 12.1397 19.0192 12.3619 19.1641C12.7484 19.425 12.8063 19.4346 14.294 19.4636L15.8302 19.4927L15.8011 20.3717L15.7722 21.2508L12.8256 22.8063L9.87906 24.3713L9.44432 23.927C8.94197 23.4053 8.33332 23.1927 7.68605 23.2894C7.39622 23.3377 6.28522 23.9173 4.08255 25.1732C1.10699 26.8638 0.875133 27.0185 0.61429 27.4338C0.295481 27.9556 0.198873 28.5932 0.363107 29.0956C0.430733 29.2887 2.13105 32.3512 4.14051 35.8871C6.78759 40.5436 7.89859 42.4178 8.15943 42.64C8.73909 43.1617 9.56026 43.297 10.2655 42.9686C10.9418 42.6594 16.3422 39.5679 16.5644 39.365C16.9992 38.9592 17.202 38.3699 17.144 37.684L17.0957 37.0754L18.1777 36.4957L19.2598 35.9257L24.5249 36.8919C29.5099 37.7999 29.8288 37.8483 30.7948 37.8096C31.4615 37.7807 31.9928 37.7033 32.3406 37.5778C32.9009 37.3749 47.3343 29.907 48.1072 29.4144C48.6674 29.0665 49.0636 28.5738 49.4114 27.8203C49.6335 27.3469 49.6722 27.1246 49.6722 26.4387C49.6722 25.2891 49.421 24.6708 48.6096 23.8594L47.9913 23.2507V16.092C47.9913 8.15075 48.0202 8.56617 47.3343 7.86092C46.8319 7.34889 46.3006 7.21364 44.7935 7.21364H43.5569L43.5278 4.42165L43.4989 1.62965L43.209 1.20458C43.0159 0.934074 42.7357 0.702212 42.3976 0.518656L41.8663 0.257812H27.4715C15.1443 0.267474 13.0189 0.286795 12.7484 0.402726ZM41.9048 1.56204C42.0594 1.63931 42.2334 1.79389 42.2913 1.8905C42.3493 2.00643 42.388 3.06913 42.388 4.64385V7.21364H41.7599H41.132V6.41179C41.132 5.33943 41.0353 5.17519 40.3301 5.03994C39.422 4.85639 38.9776 4.42165 38.8134 3.54251C38.7555 3.25268 38.6395 2.95319 38.5526 2.88558C38.3399 2.731 16.6899 2.71168 16.4002 2.86625C16.2745 2.93388 16.1973 3.11743 16.149 3.45556C16.0331 4.29606 15.4534 4.90469 14.6322 5.03994C13.8207 5.17519 13.8884 4.72114 13.8884 9.86072C13.8884 13.5802 13.9173 14.4592 14.0139 14.5462C14.0913 14.6042 14.381 14.6912 14.6613 14.7491C14.9414 14.8071 15.3181 14.9616 15.5017 15.0969L15.8205 15.3385V16.8358V18.3236H14.4584H13.0961L12.816 18.0435L12.5358 17.7633V9.89936C12.5358 2.6054 12.5551 2.02575 12.7097 1.84219C12.7967 1.72626 12.9609 1.59101 13.0672 1.53305C13.2024 1.45576 17.318 1.42677 27.4426 1.41711C39.9051 1.41711 41.6634 1.43644 41.9048 1.56204ZM37.7603 4.18979C38.0792 5.07859 38.7168 5.75485 39.509 6.02535L39.9727 6.19925V6.70161V7.21364L28.6502 7.23296L17.318 7.26194L16.8735 7.52279C16.632 7.66771 16.3035 7.96719 16.149 8.18939L15.8688 8.59514L15.8398 11.2326L15.8109 13.87L15.4534 13.7444L15.096 13.6189L15.0669 9.89936L15.0476 6.17993L15.4727 6.01569C16.2552 5.71621 16.9026 5.0013 17.202 4.09318C17.2599 3.9386 17.8397 3.92894 27.4619 3.92894H37.654L37.7603 4.18979ZM46.5518 8.74006L46.8319 9.04921V15.947V22.8449L45.9914 22.8836C45.2861 22.9223 44.977 22.9995 44.1752 23.3279C43.6438 23.5406 43.1898 23.6758 43.1705 23.6274C43.1124 23.4536 43.3636 22.642 43.5569 22.3619C43.7984 22.0335 44.3973 21.7049 44.7742 21.7049C44.9288 21.7049 45.1509 21.6373 45.2668 21.5504L45.4794 21.4054V16.8841C45.4794 11.7929 45.5277 12.1214 44.7259 12.0151C43.953 11.9185 43.354 11.3099 43.209 10.45C43.1705 10.2375 43.0739 9.98631 42.9869 9.88971C42.8517 9.73513 42.2043 9.72547 31.9348 9.72547C24.7568 9.72547 20.9601 9.75446 20.8442 9.82207C20.7378 9.88004 20.6317 10.0733 20.6026 10.2858C20.3998 11.4548 20.0134 11.8219 18.6898 12.0924C18.5256 12.1214 18.3903 12.2373 18.3323 12.3919C18.2744 12.5368 18.2357 14.2661 18.2357 16.5364V20.4298L17.8782 20.4877C17.6753 20.5263 17.3952 20.5746 17.2503 20.6036L16.9798 20.6616V14.8457C16.9798 10.8751 17.0088 8.97192 17.0861 8.84632C17.3373 8.36329 16.7963 8.3826 32.0314 8.40193L46.2715 8.42125L46.5518 8.74006ZM42.2817 11.4161C42.5424 12.0537 43.3251 12.8073 43.924 13.0102L44.3201 13.1358V16.8939C44.3201 20.2075 44.3007 20.6423 44.1752 20.6423C43.9047 20.6423 43.2574 21.0287 42.8806 21.4054C42.6777 21.6083 42.4169 22.0141 42.2913 22.3136L42.0594 22.8642H34.3018H26.5344L23.5685 21.9465C21.9359 21.4441 20.3418 20.9224 20.023 20.7969L19.4434 20.5553L19.4143 16.8841L19.3951 13.2033L19.994 12.9329C20.8345 12.5464 21.3176 12.0054 21.646 11.049C21.704 10.8944 22.2836 10.8848 31.8865 10.8848H42.0594L42.2817 11.4161ZM24.4767 23.4438C27.6068 24.4003 30.3118 25.2408 30.4857 25.2891C31.2393 25.5307 31.6934 26.1875 31.6934 27.0378C31.6934 28.0715 30.9688 28.7477 29.8481 28.7574C29.5582 28.7574 27.5874 28.3806 25.3074 27.8879C23.0855 27.4049 21.1823 27.0185 21.0664 27.0185C20.5736 27.0185 20.3514 27.7623 20.7765 28.0232C20.8924 28.0908 22.8536 28.5545 25.1432 29.0473C29.8674 30.0616 30.2828 30.1003 31.2778 29.6075C31.5677 29.4627 34.6785 28.2357 38.1855 26.8832C41.6923 25.5307 44.7935 24.3424 45.0736 24.2265C46.4938 23.6661 47.9719 24.3133 48.4356 25.6949C48.7351 26.5837 48.4067 27.7237 47.7014 28.284C47.199 28.6704 32.4855 36.2929 31.8286 36.5054C30.8431 36.8049 30.2442 36.7469 24.5636 35.7132C21.646 35.1819 19.2018 34.7471 19.1342 34.7471C19.0763 34.7471 18.4482 35.0466 17.7527 35.4137C16.4968 36.0803 16.487 36.0803 16.3615 35.8774C15.6756 34.805 10.4297 25.4148 10.4877 25.3665C10.6713 25.2021 17.318 21.7629 17.5885 21.6953C17.7623 21.6566 18.0909 21.6373 18.342 21.6566C18.5835 21.676 21.3369 22.4778 24.4767 23.4438ZM42.1464 24.1106C42.0401 24.1588 39.9534 24.9607 37.5092 25.9074C35.0649 26.8445 33.0169 27.6367 32.9589 27.6561C32.8913 27.685 32.8623 27.4919 32.8623 27.0957C32.8719 25.8012 32.1281 24.6806 30.9881 24.2361L30.4568 24.0332H36.3981C39.6635 24.0332 42.2527 24.0719 42.1464 24.1106ZM8.58451 24.6708C8.68111 24.7674 10.3814 27.7237 12.3812 31.2306C14.922 35.7132 16.0138 37.7131 16.0138 37.916C16.0138 38.0704 15.9364 38.2927 15.8495 38.4086C15.7045 38.5728 11.2219 41.191 10.0047 41.8092C9.53127 42.0507 9.22213 42.0411 8.92264 41.7706C8.59417 41.4807 1.4258 28.825 1.4258 28.5449C1.43547 28.0425 1.68665 27.859 4.72017 26.1296C7.39622 24.6129 7.79232 24.41 8.08214 24.4486C8.26571 24.4777 8.49756 24.5742 8.58451 24.6708Z" fill="#D7001B"/>
<mask id="mask0_10_144" style="mask-type:luminance" maskUnits="userSpaceOnUse" x="-1" y="-1" width="52" height="45">
<path d="M50.0212 -0.0117188H-0.110352V43.5409H50.0212V-0.0117188Z" fill="white"/>
<path d="M12.7485 0.402726C12.1592 0.663569 11.8403 0.963056 11.5988 1.46542L11.3766 1.97744L11.3959 10.0346L11.4249 18.0917L11.6954 18.4975C11.8403 18.7198 12.1398 19.0192 12.362 19.1641C12.7485 19.425 12.8064 19.4346 14.2941 19.4636L15.8303 19.4927L15.8012 20.3717L15.7723 21.2508L12.8257 22.8063L9.87918 24.3713L9.44445 23.927C8.94209 23.4053 8.33345 23.1927 7.68617 23.2894C7.39634 23.3377 6.28534 23.9173 4.08267 25.1732C1.10712 26.8638 0.875255 27.0185 0.614412 27.4338C0.295603 27.9556 0.198995 28.5932 0.363229 29.0956C0.430855 29.2887 2.13117 32.3512 4.14063 35.8871C6.78771 40.5436 7.89871 42.4178 8.15955 42.64C8.73921 43.1617 9.56038 43.297 10.2656 42.9686C10.9419 42.6594 16.3423 39.5679 16.5645 39.365C16.9993 38.9592 17.2022 38.3699 17.1441 37.684L17.0959 37.0754L18.1778 36.4957L19.2599 35.9257L24.5251 36.8919C29.5101 37.7999 29.8289 37.8483 30.7949 37.8096C31.4616 37.7807 31.993 37.7033 32.3407 37.5778C32.901 37.3749 47.3344 29.907 48.1073 29.4144C48.6676 29.0665 49.0638 28.5738 49.4115 27.8203C49.6336 27.3469 49.6723 27.1246 49.6723 26.4387C49.6723 25.2891 49.4211 24.6708 48.6097 23.8594L47.9914 23.2507V16.092C47.9914 8.15075 48.0203 8.56617 47.3344 7.86092C46.832 7.34889 46.3007 7.21364 44.7936 7.21364H43.557L43.528 4.42165L43.499 1.62965L43.2091 1.20458C43.016 0.934074 42.7359 0.702212 42.3977 0.518656L41.8664 0.257812H27.4716C15.1444 0.267474 13.019 0.286795 12.7485 0.402726ZM41.9049 1.56204C42.0595 1.63931 42.2335 1.79389 42.2914 1.8905C42.3494 2.00643 42.3881 3.06913 42.3881 4.64385V7.21364H41.7601H41.1322V6.41179C41.1322 5.33943 41.0355 5.17519 40.3302 5.03994C39.4222 4.85639 38.9777 4.42165 38.8135 3.54251C38.7556 3.25268 38.6397 2.95319 38.5527 2.88558C38.3401 2.731 16.6901 2.71168 16.4003 2.86625C16.2747 2.93388 16.1974 3.11743 16.1491 3.45556C16.0332 4.29606 15.4535 4.90469 14.6323 5.03994C13.8209 5.17519 13.8885 4.72114 13.8885 9.86072C13.8885 13.5802 13.9174 14.4592 14.014 14.5462C14.0914 14.6042 14.3811 14.6912 14.6614 14.7491C14.9415 14.8071 15.3182 14.9616 15.5018 15.0969L15.8206 15.3385V16.8358V18.3236H14.4585H13.0963L12.8161 18.0435L12.5359 17.7633V9.89936C12.5359 2.6054 12.5552 2.02575 12.7098 1.84219C12.7968 1.72626 12.961 1.59101 13.0673 1.53305C13.2026 1.45576 17.3181 1.42677 27.4427 1.41711C39.9052 1.41711 41.6635 1.43644 41.9049 1.56204ZM37.7605 4.18979C38.0793 5.07859 38.7169 5.75485 39.5091 6.02535L39.9728 6.19925V6.70161V7.21364L28.6503 7.23296L17.3181 7.26194L16.8736 7.52279C16.6322 7.66771 16.3036 7.96719 16.1491 8.18939L15.8689 8.59514L15.8399 11.2326L15.811 13.87L15.4535 13.7444L15.0961 13.6189L15.067 9.89936L15.0477 6.17993L15.4728 6.01569C16.2553 5.71621 16.9027 5.0013 17.2022 4.09318C17.2601 3.9386 17.8398 3.92894 27.462 3.92894H37.6541L37.7605 4.18979ZM46.5519 8.74006L46.832 9.04921V15.947V22.8449L45.9915 22.8836C45.2863 22.9223 44.9772 22.9995 44.1753 23.3279C43.6439 23.5406 43.1899 23.6758 43.1706 23.6274C43.1126 23.4536 43.3637 22.642 43.557 22.3619C43.7985 22.0335 44.3974 21.7049 44.7743 21.7049C44.9289 21.7049 45.151 21.6373 45.2669 21.5504L45.4795 21.4054V16.8841C45.4795 11.7929 45.5278 12.1214 44.726 12.0151C43.9531 11.9185 43.3541 11.3099 43.2091 10.45C43.1706 10.2375 43.074 9.98631 42.987 9.88971C42.8518 9.73513 42.2044 9.72547 31.9349 9.72547C24.7569 9.72547 20.9602 9.75446 20.8443 9.82207C20.738 9.88004 20.6318 10.0733 20.6027 10.2858C20.3999 11.4548 20.0135 11.8219 18.6899 12.0924C18.5257 12.1214 18.3905 12.2373 18.3324 12.3919C18.2745 12.5368 18.2359 14.2661 18.2359 16.5364V20.4298L17.8784 20.4877C17.6755 20.5263 17.3953 20.5746 17.2505 20.6036L16.9799 20.6616V14.8457C16.9799 10.8751 17.0089 8.97192 17.0862 8.84632C17.3374 8.36329 16.7964 8.3826 32.0315 8.40193L46.2716 8.42125L46.5519 8.74006ZM42.2818 11.4161C42.5426 12.0537 43.3252 12.8073 43.9241 13.0102L44.3202 13.1358V16.8939C44.3202 20.2075 44.3009 20.6423 44.1753 20.6423C43.9048 20.6423 43.2576 21.0287 42.8807 21.4054C42.6778 21.6083 42.417 22.0141 42.2914 22.3136L42.0595 22.8642H34.3019H26.5345L23.5686 21.9465C21.936 21.4441 20.3419 20.9224 20.0231 20.7969L19.4435 20.5553L19.4144 16.8841L19.3952 13.2033L19.9941 12.9329C20.8347 12.5464 21.3177 12.0054 21.6461 11.049C21.7041 10.8944 22.2837 10.8848 31.8866 10.8848H42.0595L42.2818 11.4161ZM24.4768 23.4438C27.6069 24.4003 30.3119 25.2408 30.4859 25.2891C31.2394 25.5307 31.6935 26.1875 31.6935 27.0378C31.6935 28.0715 30.9689 28.7477 29.8482 28.7574C29.5584 28.7574 27.5876 28.3806 25.3076 27.8879C23.0856 27.4049 21.1824 27.0185 21.0665 27.0185C20.5737 27.0185 20.3515 27.7623 20.7766 28.0232C20.8926 28.0908 22.8537 28.5545 25.1434 29.0473C29.8676 30.0616 30.283 30.1003 31.278 29.6075C31.5678 29.4627 34.6786 28.2357 38.1856 26.8832C41.6924 25.5307 44.7936 24.3424 45.0737 24.2265C46.4939 23.6661 47.972 24.3133 48.4357 25.6949C48.7352 26.5837 48.4068 27.7237 47.7015 28.284C47.1991 28.6704 32.4856 36.2929 31.8287 36.5054C30.8432 36.8049 30.2443 36.7469 24.5638 35.7132C21.6461 35.1819 19.2019 34.7471 19.1343 34.7471C19.0764 34.7471 18.4484 35.0466 17.7528 35.4137C16.4969 36.0803 16.4872 36.0803 16.3616 35.8774C15.6757 34.805 10.4299 25.4148 10.4878 25.3665C10.6714 25.2021 17.3181 21.7629 17.5886 21.6953C17.7624 21.6566 18.091 21.6373 18.3422 21.6566C18.5836 21.676 21.337 22.4778 24.4768 23.4438ZM42.1465 24.1106C42.0402 24.1588 39.9535 24.9607 37.5093 25.9074C35.0651 26.8445 33.017 27.6367 32.959 27.6561C32.8914 27.685 32.8624 27.4919 32.8624 27.0957C32.872 25.8012 32.1282 24.6806 30.9882 24.2361L30.4569 24.0332H36.3982C39.6636 24.0332 42.2528 24.0719 42.1465 24.1106ZM8.58463 24.6708C8.68124 24.7674 10.3816 27.7237 12.3814 31.2306C14.9222 35.7132 16.0139 37.7131 16.0139 37.916C16.0139 38.0704 15.9365 38.2927 15.8497 38.4086C15.7047 38.5728 11.2221 41.191 10.0048 41.8092C9.53139 42.0507 9.22225 42.0411 8.92276 41.7706C8.59429 41.4807 1.42592 28.825 1.42592 28.5449C1.43559 28.0425 1.68677 27.859 4.72029 26.1296C7.39634 24.6129 7.79245 24.41 8.08226 24.4486C8.26583 24.4777 8.49768 24.5742 8.58463 24.6708Z" fill="black"/>
</mask>
<g mask="url(#mask0_10_144)">
<path d="M12.7485 0.402726C12.1592 0.663569 11.8403 0.963056 11.5988 1.46542L11.3766 1.97744L11.3959 10.0346L11.4249 18.0917L11.6954 18.4975C11.8403 18.7198 12.1398 19.0192 12.362 19.1641C12.7485 19.425 12.8064 19.4346 14.2941 19.4636L15.8303 19.4927L15.8012 20.3717L15.7723 21.2508L12.8257 22.8063L9.87918 24.3713L9.44445 23.927C8.94209 23.4053 8.33345 23.1927 7.68617 23.2894C7.39634 23.3377 6.28534 23.9173 4.08267 25.1732C1.10712 26.8638 0.875255 27.0185 0.614412 27.4338C0.295603 27.9556 0.198995 28.5932 0.363229 29.0956C0.430855 29.2887 2.13117 32.3512 4.14063 35.8871C6.78771 40.5436 7.89871 42.4178 8.15955 42.64C8.73921 43.1617 9.56038 43.297 10.2656 42.9686C10.9419 42.6594 16.3423 39.5679 16.5645 39.365C16.9993 38.9592 17.2022 38.3699 17.1441 37.684L17.0959 37.0754L18.1778 36.4957L19.2599 35.9257L24.5251 36.8919C29.5101 37.7999 29.8289 37.8483 30.7949 37.8096C31.4616 37.7807 31.993 37.7033 32.3407 37.5778C32.901 37.3749 47.3344 29.907 48.1073 29.4144C48.6676 29.0665 49.0638 28.5738 49.4115 27.8203C49.6336 27.3469 49.6723 27.1246 49.6723 26.4387C49.6723 25.2891 49.4211 24.6708 48.6097 23.8594L47.9914 23.2507V16.092C47.9914 8.15075 48.0203 8.56617 47.3344 7.86092C46.832 7.34889 46.3007 7.21364 44.7936 7.21364H43.557L43.528 4.42165L43.499 1.62965L43.2091 1.20458C43.016 0.934074 42.7359 0.702212 42.3977 0.518656L41.8664 0.257812H27.4716C15.1444 0.267474 13.019 0.286795 12.7485 0.402726ZM41.9049 1.56204C42.0595 1.63931 42.2335 1.79389 42.2914 1.8905C42.3494 2.00643 42.3881 3.06913 42.3881 4.64385V7.21364H41.7601H41.1322V6.41179C41.1322 5.33943 41.0355 5.17519 40.3302 5.03994C39.4222 4.85639 38.9777 4.42165 38.8135 3.54251C38.7556 3.25268 38.6397 2.95319 38.5527 2.88558C38.3401 2.731 16.6901 2.71168 16.4003 2.86625C16.2747 2.93388 16.1974 3.11743 16.1491 3.45556C16.0332 4.29606 15.4535 4.90469 14.6323 5.03994C13.8209 5.17519 13.8885 4.72114 13.8885 9.86072C13.8885 13.5802 13.9174 14.4592 14.014 14.5462C14.0914 14.6042 14.3811 14.6912 14.6614 14.7491C14.9415 14.8071 15.3182 14.9616 15.5018 15.0969L15.8206 15.3385V16.8358V18.3236H14.4585H13.0963L12.8161 18.0435L12.5359 17.7633V9.89936C12.5359 2.6054 12.5552 2.02575 12.7098 1.84219C12.7968 1.72626 12.961 1.59101 13.0673 1.53305C13.2026 1.45576 17.3181 1.42677 27.4427 1.41711C39.9052 1.41711 41.6635 1.43644 41.9049 1.56204ZM37.7605 4.18979C38.0793 5.07859 38.7169 5.75485 39.5091 6.02535L39.9728 6.19925V6.70161V7.21364L28.6503 7.23296L17.3181 7.26194L16.8736 7.52279C16.6322 7.66771 16.3036 7.96719 16.1491 8.18939L15.8689 8.59514L15.8399 11.2326L15.811 13.87L15.4535 13.7444L15.0961 13.6189L15.067 9.89936L15.0477 6.17993L15.4728 6.01569C16.2553 5.71621 16.9027 5.0013 17.2022 4.09318C17.2601 3.9386 17.8398 3.92894 27.462 3.92894H37.6541L37.7605 4.18979ZM46.5519 8.74006L46.832 9.04921V15.947V22.8449L45.9915 22.8836C45.2863 22.9223 44.9772 22.9995 44.1753 23.3279C43.6439 23.5406 43.1899 23.6758 43.1706 23.6274C43.1126 23.4536 43.3637 22.642 43.557 22.3619C43.7985 22.0335 44.3974 21.7049 44.7743 21.7049C44.9289 21.7049 45.151 21.6373 45.2669 21.5504L45.4795 21.4054V16.8841C45.4795 11.7929 45.5278 12.1214 44.726 12.0151C43.9531 11.9185 43.3541 11.3099 43.2091 10.45C43.1706 10.2375 43.074 9.98631 42.987 9.88971C42.8518 9.73513 42.2044 9.72547 31.9349 9.72547C24.7569 9.72547 20.9602 9.75446 20.8443 9.82207C20.738 9.88004 20.6318 10.0733 20.6027 10.2858C20.3999 11.4548 20.0135 11.8219 18.6899 12.0924C18.5257 12.1214 18.3905 12.2373 18.3324 12.3919C18.2745 12.5368 18.2359 14.2661 18.2359 16.5364V20.4298L17.8784 20.4877C17.6755 20.5263 17.3953 20.5746 17.2505 20.6036L16.9799 20.6616V14.8457C16.9799 10.8751 17.0089 8.97192 17.0862 8.84632C17.3374 8.36329 16.7964 8.3826 32.0315 8.40193L46.2716 8.42125L46.5519 8.74006ZM42.2818 11.4161C42.5426 12.0537 43.3252 12.8073 43.9241 13.0102L44.3202 13.1358V16.8939C44.3202 20.2075 44.3009 20.6423 44.1753 20.6423C43.9048 20.6423 43.2576 21.0287 42.8807 21.4054C42.6778 21.6083 42.417 22.0141 42.2914 22.3136L42.0595 22.8642H34.3019H26.5345L23.5686 21.9465C21.936 21.4441 20.3419 20.9224 20.0231 20.7969L19.4435 20.5553L19.4144 16.8841L19.3952 13.2033L19.9941 12.9329C20.8347 12.5464 21.3177 12.0054 21.6461 11.049C21.7041 10.8944 22.2837 10.8848 31.8866 10.8848H42.0595L42.2818 11.4161ZM24.4768 23.4438C27.6069 24.4003 30.3119 25.2408 30.4859 25.2891C31.2394 25.5307 31.6935 26.1875 31.6935 27.0378C31.6935 28.0715 30.9689 28.7477 29.8482 28.7574C29.5584 28.7574 27.5876 28.3806 25.3076 27.8879C23.0856 27.4049 21.1824 27.0185 21.0665 27.0185C20.5737 27.0185 20.3515 27.7623 20.7766 28.0232C20.8926 28.0908 22.8537 28.5545 25.1434 29.0473C29.8676 30.0616 30.283 30.1003 31.278 29.6075C31.5678 29.4627 34.6786 28.2357 38.1856 26.8832C41.6924 25.5307 44.7936 24.3424 45.0737 24.2265C46.4939 23.6661 47.972 24.3133 48.4357 25.6949C48.7352 26.5837 48.4068 27.7237 47.7015 28.284C47.1991 28.6704 32.4856 36.2929 31.8287 36.5054C30.8432 36.8049 30.2443 36.7469 24.5638 35.7132C21.6461 35.1819 19.2019 34.7471 19.1343 34.7471C19.0764 34.7471 18.4484 35.0466 17.7528 35.4137C16.4969 36.0803 16.4872 36.0803 16.3616 35.8774C15.6757 34.805 10.4299 25.4148 10.4878 25.3665C10.6714 25.2021 17.3181 21.7629 17.5886 21.6953C17.7624 21.6566 18.091 21.6373 18.3422 21.6566C18.5836 21.676 21.337 22.4778 24.4768 23.4438ZM42.1465 24.1106C42.0402 24.1588 39.9535 24.9607 37.5093 25.9074C35.0651 26.8445 33.017 27.6367 32.959 27.6561C32.8914 27.685 32.8624 27.4919 32.8624 27.0957C32.872 25.8012 32.1282 24.6806 30.9882 24.2361L30.4569 24.0332H36.3982C39.6636 24.0332 42.2528 24.0719 42.1465 24.1106ZM8.58463 24.6708C8.68124 24.7674 10.3816 27.7237 12.3814 31.2306C14.9222 35.7132 16.0139 37.7131 16.0139 37.916C16.0139 38.0704 15.9365 38.2927 15.8497 38.4086C15.7047 38.5728 11.2221 41.191 10.0048 41.8092C9.53139 42.0507 9.22225 42.0411 8.92276 41.7706C8.59429 41.4807 1.42592 28.825 1.42592 28.5449C1.43559 28.0425 1.68677 27.859 4.72029 26.1296C7.39634 24.6129 7.79245 24.41 8.08226 24.4486C8.26583 24.4777 8.49768 24.5742 8.58463 24.6708Z" stroke="#D7001B" stroke-width="0.526316"/>
</g>
<path d="M29.809 18.9084C31.2432 20.382 33.6311 19.9981 34.5456 18.1199L34.5779 18.0517C35.2348 16.6145 34.5821 14.8805 33.1218 14.1852C32.839 14.0492 32.4336 13.9702 32.0304 13.948C31.6514 13.927 31.2575 13.9553 30.9496 14.0443L30.8892 14.063C30.5868 14.162 30.2647 14.3668 29.9817 14.6186C29.7159 14.8552 29.4769 15.1399 29.3173 15.432L29.2864 15.4905C28.6917 16.6598 28.8542 17.8688 29.7414 18.8368L29.809 18.9084ZM33.3729 17.2261C33.0434 18.4547 31.5802 18.7873 30.7297 17.821L30.7298 17.8209C29.8798 16.847 30.565 15.363 31.8867 15.363C32.0033 15.363 32.1401 15.3765 32.265 15.3994C32.3929 15.4228 32.4952 15.4538 32.5493 15.4827L32.5497 15.483L32.6096 15.5163C33.2184 15.8715 33.5429 16.597 33.373 17.2259L33.3729 17.2261Z" fill="#D7001B" stroke="#D7001B" stroke-width="0.263158"/>
<path d="M27.1791 17.5845L27.2184 17.5332L27.4108 17.2832L27.4565 17.2234C27.5584 17.085 27.6271 16.9537 27.6287 16.8167C27.6304 16.6525 27.5367 16.5203 27.4101 16.3938C27.3557 16.3392 27.2962 16.2903 27.1934 16.2549C27.0986 16.2222 26.9715 16.2029 26.784 16.1901C26.4075 16.1643 25.7396 16.1621 24.4865 16.1621C23.2666 16.1621 22.5973 16.1643 22.2154 16.1876C22.0254 16.1992 21.8958 16.2165 21.8015 16.2453C21.6999 16.2763 21.6392 16.3211 21.588 16.3784C21.3115 16.6783 21.3311 17.1778 21.6561 17.405C21.7842 17.499 21.9794 17.5365 22.3758 17.5578C22.7834 17.5797 23.4395 17.5845 24.5251 17.5845H27.1791Z" fill="#D7001B" stroke="#D7001B" stroke-width="0.263158"/>
<path d="M39.2963 17.5845C40.5352 17.5845 41.1957 17.5821 41.5686 17.5565C41.7544 17.5436 41.8806 17.5243 41.975 17.4917C42.0774 17.4563 42.1366 17.4072 42.1911 17.3528C42.3217 17.2221 42.4037 17.0771 42.4119 16.9111C42.4199 16.748 42.355 16.5893 42.2453 16.4322L42.2454 16.4321C42.2079 16.377 42.1625 16.3103 42.0641 16.2641C41.9766 16.2232 41.8561 16.2024 41.6767 16.189C41.3142 16.1618 40.6356 16.1621 39.3061 16.1621C38.0669 16.1621 37.3879 16.1645 37.0013 16.1876C36.809 16.1992 36.6782 16.2165 36.5833 16.2453C36.4798 16.2766 36.4187 16.322 36.3671 16.3805C36.2357 16.5245 36.171 16.6971 36.1786 16.8729C36.1862 17.0488 36.2657 17.2166 36.4017 17.3528C36.4562 17.4071 36.5154 17.4563 36.6178 17.4917C36.7123 17.5243 36.8385 17.5436 37.0244 17.5565C37.3973 17.5821 38.0578 17.5845 39.2963 17.5845Z" fill="#D7001B" stroke="#D7001B" stroke-width="0.263158"/>
<path d="M7.16026 30.2507C8.77487 30.48 10.0294 28.6717 9.17095 27.2688L9.17108 27.2687C8.81925 26.6788 8.28573 26.3665 7.57723 26.3353L7.57736 26.3352C7.39203 26.3252 7.2085 26.3302 7.04744 26.3479C6.88884 26.3654 6.7428 26.3962 6.63767 26.4431L6.63587 26.4437C4.87165 27.2588 5.17432 29.8854 7.08265 30.2381L7.08304 30.2382L7.16026 30.2507ZM7.88228 28.6167C7.724 28.8175 7.47366 28.8657 7.25496 28.7942C7.03626 28.7227 6.87101 28.539 6.87101 28.2924C6.87107 27.7662 7.56584 27.5283 7.88228 27.9295L7.88292 27.9303L7.9203 27.98C7.95633 28.0311 7.98784 28.085 8.01179 28.1353C8.0459 28.2069 8.0569 28.2552 8.0569 28.2732C8.0569 28.2912 8.04591 28.3394 8.01179 28.4111C7.97987 28.4781 7.93449 28.5516 7.88292 28.6161L7.88228 28.6167Z" fill="#D7001B" stroke="#D7001B" stroke-width="0.263158"/>
</g>
</g>
</g>
<defs>
<clipPath id="clip0_10_144">
<rect width="50" height="43.41" fill="white"/>
</clipPath>
<clipPath id="clip1_10_144">
<rect width="50" height="43.41" fill="white"/>
</clipPath>
<clipPath id="clip2_10_144">
<rect width="50" height="43.4211" fill="white" transform="translate(0 -0.00585938)"/>
</clipPath>
</defs>
</svg>
