<svg width="50" height="50" viewBox="0 0 50 50" fill="none" xmlns="http://www.w3.org/2000/svg">
<g clip-path="url(#clip0_10_127)">
<g clip-path="url(#clip1_10_127)">
<path d="M46.8251 27.4021C46.8732 27.253 46.887 27.095 46.8653 26.9398C46.8437 26.7847 46.7872 26.6364 46.7001 26.5063L42.5334 20.2563C42.5209 20.2375 42.498 20.2354 42.4855 20.2167C42.376 20.0665 42.2276 19.9491 42.0563 19.8771C42.048 19.8729 42.0417 19.8625 42.0334 19.8563L35.7834 17.5146C35.6554 17.4664 35.5191 17.444 35.3824 17.4485C35.2456 17.453 35.1112 17.4844 34.9866 17.5409C34.862 17.5974 34.7497 17.6778 34.6563 17.7777C34.5628 17.8776 34.4899 17.9949 34.4417 18.1229C34.3936 18.251 34.3711 18.3872 34.3756 18.5239C34.3801 18.6607 34.4115 18.7952 34.468 18.9197C34.5245 19.0443 34.605 19.1566 34.7049 19.2501C34.8047 19.3435 34.922 19.4164 35.0501 19.4646L38.7001 20.8333L25.0001 25.9708L11.3001 20.8333L14.2563 19.725C14.5149 19.6278 14.7243 19.4318 14.8383 19.1802C14.9524 18.9285 14.9619 18.6419 14.8646 18.3833C14.7674 18.1247 14.5714 17.9154 14.3198 17.8013C14.0682 17.6872 13.7816 17.6778 13.523 17.775L7.96672 19.8583C7.95839 19.8604 7.95422 19.8729 7.94589 19.875C7.77358 19.9473 7.62441 20.0655 7.51464 20.2167C7.50214 20.2333 7.47922 20.2375 7.46672 20.2563L3.30006 26.5063C3.2132 26.6367 3.15691 26.7851 3.13537 26.9404C3.11383 27.0956 3.12761 27.2537 3.17567 27.4029C3.22373 27.5521 3.30483 27.6885 3.41294 27.802C3.52105 27.9155 3.65338 28.0031 3.80006 28.0583L7.29172 29.3688V36.6958C7.29541 37.7552 7.62039 38.7885 8.22372 39.6593C8.82705 40.5301 9.68035 41.1973 10.6709 41.5729L24.6334 46.8083C24.8699 46.8967 25.1303 46.8967 25.3667 46.8083L39.3292 41.5729C40.3194 41.1974 41.1725 40.5305 41.7758 39.6601C42.3791 38.7898 42.7043 37.7569 42.7084 36.6979V29.3688L46.2001 28.0583C46.3469 28.0031 46.4794 27.9154 46.5877 27.8017C46.6959 27.6881 46.777 27.5515 46.8251 27.4021ZM5.76256 26.5688L8.74172 22.1L23.4042 27.6L20.4251 32.0688L5.76256 26.5688ZM23.9584 44.3292L11.4042 39.6208C10.8097 39.396 10.2973 38.996 9.935 38.4737C9.57267 37.9515 9.37742 37.3315 9.37506 36.6958V30.15L20.4667 34.3083C20.6868 34.3913 20.9285 34.3973 21.1524 34.3254C21.3763 34.2536 21.5694 34.108 21.7001 33.9125L23.9584 30.5208V44.3292ZM40.6251 36.6958C40.6231 37.3318 40.4281 37.9523 40.0657 38.475C39.7034 38.9977 39.1908 39.398 38.5959 39.6229L26.0417 44.3313V30.5208L28.3001 33.9083C28.4305 34.1042 28.6234 34.2502 28.8473 34.3224C29.0713 34.3947 29.3131 34.389 29.5334 34.3063L40.6251 30.1479V36.6958ZM29.5751 32.0688L26.5959 27.5979L41.2584 22.0979L44.2376 26.5688L29.5751 32.0688ZM25.0001 15.625C24.7238 15.625 24.4588 15.5153 24.2635 15.3199C24.0681 15.1246 23.9584 14.8596 23.9584 14.5833V4.16667C23.9584 3.8904 24.0681 3.62545 24.2635 3.4301C24.4588 3.23475 24.7238 3.125 25.0001 3.125C25.2763 3.125 25.5413 3.23475 25.7366 3.4301C25.932 3.62545 26.0417 3.8904 26.0417 4.16667V14.5833C26.0417 14.8596 25.932 15.1246 25.7366 15.3199C25.5413 15.5153 25.2763 15.625 25.0001 15.625ZM18.0126 17.4042L11.7626 11.1542C11.5728 10.9577 11.4678 10.6946 11.4702 10.4215C11.4726 10.1483 11.5821 9.88707 11.7752 9.69394C11.9684 9.50081 12.2296 9.39125 12.5028 9.38888C12.7759 9.38651 13.039 9.4915 13.2355 9.68125L19.4855 15.9313C19.585 16.0273 19.6643 16.1423 19.7189 16.2694C19.7735 16.3965 19.8022 16.5331 19.8034 16.6715C19.8046 16.8098 19.7783 16.9469 19.7259 17.075C19.6735 17.203 19.5962 17.3193 19.4984 17.4171C19.4006 17.5149 19.2843 17.5922 19.1563 17.6446C19.0282 17.697 18.8911 17.7233 18.7528 17.7221C18.6145 17.7209 18.4778 17.6922 18.3507 17.6376C18.2236 17.583 18.1086 17.5037 18.0126 17.4042ZM31.2501 17.7083C31.0438 17.7087 30.842 17.6478 30.6704 17.5334C30.4987 17.4189 30.3649 17.2561 30.2859 17.0655C30.2069 16.875 30.1863 16.6652 30.2266 16.4629C30.267 16.2606 30.3665 16.0749 30.5126 15.9292L36.7626 9.67917C36.959 9.48942 37.2221 9.38442 37.4953 9.3868C37.7684 9.38917 38.0297 9.49872 38.2228 9.69186C38.4159 9.88499 38.5255 10.1463 38.5278 10.4194C38.5302 10.6925 38.4252 10.9556 38.2355 11.1521L31.9855 17.4021C31.8891 17.4991 31.7745 17.5761 31.6483 17.6286C31.5221 17.6812 31.3868 17.7083 31.2501 17.7083Z" fill="#D7001B"/>
</g>
</g>
<defs>
<clipPath id="clip0_10_127">
<rect width="50" height="50" fill="white"/>
</clipPath>
<clipPath id="clip1_10_127">
<rect width="50" height="50" fill="white"/>
</clipPath>
</defs>
</svg>
