<svg width="50" height="50" viewBox="0 0 50 50" fill="none" xmlns="http://www.w3.org/2000/svg">
<g clip-path="url(#clip0_10_117)">
<g clip-path="url(#clip1_10_117)">
<g clip-path="url(#clip2_10_117)">
<mask id="mask0_10_117" style="mask-type:luminance" maskUnits="userSpaceOnUse" x="0" y="0" width="50" height="50">
<path d="M50 0H0V50H50V0Z" fill="white"/>
</mask>
<g mask="url(#mask0_10_117)">
<path d="M39.2578 0C33.3346 0 28.5156 4.81895 28.5156 10.7422C28.5156 16.6343 33.2855 21.4844 39.2578 21.4844C45.2205 21.4844 50 16.6437 50 10.7422C50 4.81895 45.1811 0 39.2578 0ZM39.2578 19.5312C37.1287 19.5312 35.1246 18.7836 33.5333 17.4113C34.2889 16.4962 35.35 15.8854 36.5208 15.6917C36.9422 16.7934 38.0098 17.5781 39.2578 17.5781C40.5059 17.5781 41.5734 16.7934 41.9948 15.6917C43.1656 15.8855 44.2268 16.4963 44.9824 17.4114C43.3913 18.7835 41.387 19.5312 39.2578 19.5312ZM37.7958 13.2624C36.8769 12.7276 36.3281 11.7855 36.3281 10.7422V8.78906C36.3281 7.17363 37.6424 5.85938 39.2578 5.85938C40.8732 5.85938 42.1875 7.17363 42.1875 8.78906V10.7422C42.1875 11.7855 41.6388 12.7276 40.7198 13.2624C40.5721 13.3483 40.4496 13.4715 40.3644 13.6196C40.2792 13.7677 40.2344 13.9356 40.2344 14.1064V14.6484C40.2344 15.1869 39.7963 15.625 39.2578 15.625C38.7193 15.625 38.2812 15.1869 38.2812 14.6484V14.1064C38.2812 13.9356 38.2364 13.7677 38.1512 13.6196C38.066 13.4715 37.9435 13.3483 37.7958 13.2624ZM46.3218 15.9703C45.4267 14.9677 44.2579 14.2487 42.9594 13.9018C43.7079 13.0298 44.1406 11.9114 44.1406 10.7422V8.78906C44.1406 6.09668 41.9502 3.90625 39.2578 3.90625C36.5654 3.90625 34.375 6.09668 34.375 8.78906V10.7422C34.375 11.9114 34.8077 13.0298 35.5563 13.9018C34.2577 14.2486 33.0888 14.9676 32.1938 15.9703C31.0757 14.4651 30.4688 12.6472 30.4688 10.7422C30.4688 5.8959 34.4115 1.95312 39.2578 1.95312C44.1041 1.95312 48.0469 5.8959 48.0469 10.7422C48.0469 12.6472 47.4399 14.4651 46.3218 15.9703ZM10.7422 0C4.81895 0 0 4.81895 0 10.7422C0 16.6343 4.76992 21.4844 10.7422 21.4844C12.6801 21.4844 14.566 20.9616 16.2109 19.9884V33.5525L13.7345 31.0761C12.5898 29.9312 10.7368 29.931 9.5917 31.0761C8.45547 32.2122 8.44785 34.0438 9.56299 35.1896L11.0623 36.9374C11.412 37.345 12.0283 37.3953 12.4394 37.0429C12.8487 36.6917 12.8959 36.0752 12.5448 35.6658C12.5448 35.6658 10.9904 33.8553 10.9729 33.8377C10.5923 33.4571 10.5923 32.8377 10.9729 32.4571C11.0636 32.3664 11.1712 32.2944 11.2896 32.2453C11.408 32.1962 11.535 32.1709 11.6632 32.1709C11.7915 32.1709 11.9184 32.1962 12.0369 32.2453C12.1553 32.2944 12.2629 32.3664 12.3535 32.4571L16.4971 36.6007C16.6337 36.7372 16.8077 36.8301 16.9971 36.8677C17.1865 36.9053 17.3828 36.886 17.5612 36.8121C17.7396 36.7382 17.8921 36.6131 17.9994 36.4525C18.1067 36.292 18.1641 36.1033 18.1642 35.9102V17.1875C18.1642 16.6388 18.6117 16.2109 19.1407 16.2109C19.6866 16.2109 20.1173 16.6566 20.1173 17.1875V28.9062C20.1173 29.4456 20.5545 29.8828 21.0938 29.8828C21.6332 29.8828 22.0704 29.4456 22.0704 28.9062V25C22.0704 24.4615 22.5085 24.0234 23.047 24.0234C23.5854 24.0234 24.0235 24.4615 24.0235 25V28.9062C24.0235 29.4456 24.4607 29.8828 25.0001 29.8828C25.5395 29.8828 25.9767 29.4456 25.9767 28.9062V26.9531C25.9767 26.4146 26.4147 25.9766 26.9532 25.9766C27.4917 25.9766 27.9298 26.4146 27.9298 26.9531V30.8594C27.9298 31.3987 28.367 31.8359 28.9063 31.8359C29.4457 31.8359 29.8829 31.3987 29.8829 30.8594V28.9062C29.8829 28.3678 30.321 27.9297 30.8595 27.9297C31.3979 27.9297 31.836 28.3678 31.836 28.9062V37.3887C31.836 39.2148 31.125 40.9315 29.834 42.2226L28.2158 43.8407C28.1251 43.9314 28.0532 44.039 28.0041 44.1575C27.955 44.276 27.9297 44.403 27.9297 44.5312V48.0469H20.1172V44.8545C20.1172 44.6212 20.0337 44.3957 19.8818 44.2187L18.2646 42.3336C17.9134 41.9242 17.2969 41.8772 16.8876 42.2282C16.4782 42.5794 16.4312 43.196 16.7822 43.6053L18.1641 45.216V49.0234C18.1641 49.5628 18.6013 50 19.1406 50H28.9062C29.4456 50 29.8828 49.5628 29.8828 49.0234V44.9357L31.2149 43.6036C32.8749 41.9438 33.7891 39.7365 33.7891 37.3887V28.9062C33.7891 27.2908 32.4748 25.9766 30.8594 25.9766C30.4896 25.9764 30.1231 26.0467 29.7796 26.1837C29.4407 24.9404 28.3022 24.0234 26.9531 24.0234C26.5833 24.0233 26.2169 24.0936 25.8733 24.2306C25.5345 22.9873 24.396 22.0703 23.0469 22.0703C22.7045 22.0703 22.376 22.1299 22.0703 22.2383V17.1875C22.0703 16.1659 21.5361 15.2485 20.7205 14.7228C21.2242 13.456 21.4834 12.1054 21.4844 10.7422C21.4844 4.81895 16.6654 0 10.7422 0ZM16.2109 17.1875V17.6223C14.6564 18.8589 12.7286 19.5318 10.7422 19.5312C8.61309 19.5312 6.60898 18.7836 5.01768 17.4113C5.77325 16.4962 6.83439 15.8854 8.00518 15.6917C8.42656 16.7934 9.49414 17.5781 10.7422 17.5781C11.9913 17.5781 13.0599 16.792 13.4804 15.6887C14.5195 15.8569 15.4755 16.3574 16.2125 17.1236C16.2121 17.1449 16.2109 17.1662 16.2109 17.1875ZM9.28018 13.2624C8.36123 12.7276 7.8125 11.7855 7.8125 10.7422V8.78906C7.8125 7.17363 9.12676 5.85938 10.7422 5.85938C12.3576 5.85938 13.6719 7.17363 13.6719 8.78906V10.7422C13.6719 11.7855 13.1231 12.7276 12.2042 13.2624C12.0565 13.3483 11.934 13.4715 11.8488 13.6196C11.7636 13.7677 11.7188 13.9356 11.7188 14.1064V14.6484C11.7188 15.1869 11.2807 15.625 10.7422 15.625C10.2037 15.625 9.76562 15.1869 9.76562 14.6484V14.1064C9.76562 13.9356 9.72078 13.7677 9.6356 13.6196C9.55041 13.4715 9.42786 13.3483 9.28018 13.2624ZM18.7906 14.2795C18.0922 14.364 17.4592 14.6977 16.995 15.1956C16.2464 14.588 15.3772 14.1465 14.4449 13.9005C15.1928 13.0287 15.625 11.9108 15.625 10.7422V8.78906C15.625 6.09668 13.4346 3.90625 10.7422 3.90625C8.0498 3.90625 5.85938 6.09668 5.85938 8.78906V10.7422C5.85938 11.9114 6.29209 13.0298 7.04063 13.9018C5.74202 14.2486 4.57321 14.9676 3.67813 15.9703C2.56006 14.4651 1.95312 12.6472 1.95312 10.7422C1.95312 5.8959 5.8959 1.95312 10.7422 1.95312C15.5885 1.95312 19.5312 5.8959 19.5312 10.7422C19.5312 11.9804 19.282 13.1675 18.7906 14.2795ZM49.8047 27.5392C50.1283 27.1077 50.0409 26.4956 49.6095 26.172C49.1781 25.8482 48.5658 25.9357 48.2423 26.3672L47.419 27.4649C46.2182 26.5099 44.7199 25.9766 43.1641 25.9766C39.3947 25.9766 36.3281 29.0432 36.3281 32.8125C36.3281 34.0979 36.6784 35.3277 37.3466 36.4044L36.4312 38.2352C36.3567 38.384 36.3216 38.5495 36.329 38.7158C36.3365 38.8821 36.3864 39.0437 36.4739 39.1853C36.5614 39.3269 36.6837 39.4438 36.8291 39.5248C36.9744 39.6059 37.1381 39.6484 37.3046 39.6484H43.164C46.9333 39.6484 49.9999 36.5818 49.9999 32.8125C49.9999 31.4175 49.5725 30.0561 48.7754 28.9113L49.8047 27.5392ZM43.1641 37.6953H38.8848L39.35 36.7648C39.4312 36.6025 39.4655 36.4207 39.4491 36.2399C39.4327 36.0591 39.3662 35.8864 39.2571 35.7413C38.6188 34.8921 38.2812 33.8793 38.2812 32.8125C38.2812 30.1201 40.4717 27.9297 43.1641 27.9297C44.2874 27.9301 45.3763 28.3176 46.2474 29.027L43.0584 33.2789L41.9015 32.122C41.5201 31.7406 40.9018 31.7406 40.5203 32.122C40.1389 32.5033 40.139 33.1217 40.5203 33.5031L42.4734 35.4562C42.5724 35.5552 42.6914 35.6317 42.8225 35.6806C42.9536 35.7295 43.0936 35.7497 43.2332 35.7398C43.3727 35.7299 43.5085 35.6901 43.6314 35.6231C43.7542 35.5561 43.8613 35.4636 43.9452 35.3517L47.5129 30.5948C47.8638 31.2814 48.0468 32.0414 48.0469 32.8125C48.0469 35.505 45.8564 37.6953 43.1641 37.6953Z" fill="#D7001B"/>
<path d="M14.6484 40.625C15.1878 40.625 15.625 40.1878 15.625 39.6484C15.625 39.1091 15.1878 38.6719 14.6484 38.6719C14.1091 38.6719 13.6719 39.1091 13.6719 39.6484C13.6719 40.1878 14.1091 40.625 14.6484 40.625Z" fill="#D7001B"/>
</g>
</g>
</g>
</g>
<defs>
<clipPath id="clip0_10_117">
<rect width="50" height="50" fill="white"/>
</clipPath>
<clipPath id="clip1_10_117">
<rect width="50" height="50" fill="white"/>
</clipPath>
<clipPath id="clip2_10_117">
<rect width="50" height="50" fill="white"/>
</clipPath>
</defs>
</svg>
