<svg width="50" height="50" viewBox="0 0 50 50" fill="none" xmlns="http://www.w3.org/2000/svg">
<g clip-path="url(#clip0_10_132)">
<g clip-path="url(#clip1_10_132)">
<g clip-path="url(#clip2_10_132)">
<mask id="mask0_10_132" style="mask-type:luminance" maskUnits="userSpaceOnUse" x="0" y="0" width="50" height="50">
<path d="M50 0H0V50H50V0Z" fill="white"/>
</mask>
<g mask="url(#mask0_10_132)">
<path d="M15.5538 25.1155L10.7056 20.2673M36.796 20.2673L31.9478 25.1155M22.0418 13.1699H16.0421C15.9126 13.1699 15.7884 13.2214 15.6968 13.3129C15.6053 13.4045 15.5538 13.5287 15.5538 13.6582V25.7713H31.9478V13.6582C31.9478 13.5287 31.8963 13.4045 31.8047 13.3129C31.7132 13.2214 31.589 13.1699 31.4595 13.1699H25.4598M39.7948 28.6481V31.6911C40.4585 31.8897 40.9444 32.5036 40.9444 33.231V33.353C40.9444 33.6137 40.8812 33.8704 40.76 34.1012C40.6389 34.3319 40.4635 34.5298 40.249 34.6778L34.717 38.4944L33.4447 43.0155L41.952 37.1462C42.5662 36.7224 43.0684 36.1558 43.4152 35.495C43.7621 34.8343 43.9433 34.0992 43.9434 33.3529V33.231C43.9434 30.8413 42.1237 28.8792 39.7948 28.6481Z" stroke="#D7001B" stroke-width="2" stroke-miterlimit="10" stroke-linecap="round" stroke-linejoin="round"/>
<path d="M20.6019 25.7721V19.7735C20.6019 19.644 20.5504 19.5198 20.4588 19.4282C20.3673 19.3366 20.2431 19.2852 20.1136 19.2852H15.5537V25.7721H20.6019ZM31.9477 25.7721V19.2852H27.3878C27.2583 19.2852 27.1341 19.3366 27.0425 19.4282C26.951 19.5198 26.8995 19.644 26.8995 19.7735V25.7721H31.9477Z" stroke="#D7001B" stroke-width="2" stroke-miterlimit="10" stroke-linecap="round" stroke-linejoin="round"/>
<path d="M32.8534 45.1161L36.7959 31.1061V25.7709H10.7055V31.1061L14.6479 45.1161M18.0527 15.9269H18.2526M20.8518 15.9269H21.0517M23.6507 15.9269H23.8506M26.4497 15.9269H26.6496M29.2486 15.9269H29.4485M7.70654 26.9531V31.8325C7.70654 31.962 7.75799 32.0862 7.84956 32.1778C7.94113 32.2694 8.06532 32.3208 8.19482 32.3208H10.2172C10.3467 32.3208 10.4709 32.2694 10.5625 32.1778C10.654 32.0862 10.7055 31.962 10.7055 31.8325V20.2669H8.19482C8.06532 20.2669 7.94113 20.3184 7.84956 20.4099C7.75799 20.5015 7.70654 20.6257 7.70654 20.7552V23.5352M17.0987 0.895825L15.7543 3.52659C15.139 4.73069 16.0135 6.15989 17.3657 6.15989C18.718 6.15989 19.5926 4.73079 18.9771 3.52659L17.6328 0.895825C17.5215 0.677954 17.2101 0.677954 17.0987 0.895825ZM29.8685 0.895825L28.524 3.52659C27.9086 4.73069 28.7832 6.15989 30.1354 6.15989C31.4877 6.15989 32.3623 4.73079 31.7469 3.52659L30.4025 0.895825C30.2912 0.677954 29.9799 0.677954 29.8685 0.895825ZM23.4836 4.86497L22.1392 7.49573C21.5238 8.69983 22.3983 10.129 23.7506 10.129C25.1028 10.129 25.9774 8.69993 25.362 7.49573L24.0176 4.86497C23.9063 4.64709 23.5949 4.64709 23.4836 4.86497ZM37.2842 32.3208H39.3065C39.436 32.3208 39.5602 32.2694 39.6518 32.1778C39.7434 32.0862 39.7948 31.962 39.7948 31.8325V20.7552C39.7948 20.6257 39.7434 20.5015 39.6518 20.4099C39.5602 20.3184 39.436 20.2669 39.3065 20.2669H36.7959V31.8325C36.7959 31.962 36.8473 32.0862 36.9389 32.1778C37.0305 32.2694 37.1547 32.3208 37.2842 32.3208Z" stroke="#D7001B" stroke-width="2" stroke-miterlimit="10" stroke-linecap="round" stroke-linejoin="round"/>
<path d="M17.8713 45.1152H6.55693C6.42438 45.1152 6.29725 45.1679 6.20352 45.2616C6.10979 45.3553 6.05713 45.4825 6.05713 45.615C6.05713 47.6318 7.69199 49.2667 9.70879 49.2667H37.7925C39.8092 49.2667 41.4441 47.6318 41.4441 45.615C41.4442 45.5494 41.4312 45.4844 41.4061 45.4237C41.381 45.3631 41.3442 45.308 41.2978 45.2616C41.2514 45.2152 41.1963 45.1783 41.1356 45.1532C41.075 45.1281 41.01 45.1152 40.9443 45.1152H21.2893" stroke="#D7001B" stroke-width="2" stroke-miterlimit="10" stroke-linecap="round" stroke-linejoin="round"/>
</g>
</g>
</g>
</g>
<defs>
<clipPath id="clip0_10_132">
<rect width="50" height="50" fill="white"/>
</clipPath>
<clipPath id="clip1_10_132">
<rect width="50" height="50" fill="white"/>
</clipPath>
<clipPath id="clip2_10_132">
<rect width="50" height="50" fill="white"/>
</clipPath>
</defs>
</svg>
