<svg width="50" height="50" viewBox="0 0 50 50" fill="none" xmlns="http://www.w3.org/2000/svg">
<g clip-path="url(#clip0_10_106)">
<g clip-path="url(#clip1_10_106)">
<g clip-path="url(#clip2_10_106)">
<mask id="mask0_10_106" style="mask-type:luminance" maskUnits="userSpaceOnUse" x="0" y="0" width="50" height="50">
<path d="M50 0H0V50H50V0Z" fill="white"/>
</mask>
<g mask="url(#mask0_10_106)">
<path d="M16.3462 7.69141C15.8152 7.69141 15.3847 8.12189 15.3847 8.65295V12.4991C15.3847 13.0302 15.8152 13.4607 16.3462 13.4607C16.8773 13.4607 17.3078 13.0302 17.3078 12.4991V8.65295C17.3078 8.12189 16.8773 7.69141 16.3462 7.69141ZM19.7458 14.3056L22.4655 11.586C22.8409 11.2105 22.8409 10.6016 22.4655 10.2261C22.09 9.85054 21.4811 9.85054 21.1056 10.2261L18.3859 12.9457C18.0105 13.3211 18.0105 13.93 18.3859 14.3056C18.7614 14.681 19.3704 14.6811 19.7458 14.3056ZM25.0001 16.3453C25.0001 15.8142 24.5696 15.3837 24.0385 15.3837H20.1924C19.6613 15.3837 19.2308 15.8142 19.2308 16.3453C19.2308 16.8763 19.6613 17.3068 20.1924 17.3068H24.0385C24.5696 17.3068 25.0001 16.8763 25.0001 16.3453ZM19.7458 18.385C19.3704 18.0095 18.7615 18.0095 18.3859 18.385C18.0105 18.7605 18.0105 19.3693 18.3859 19.7449L21.1056 22.4645C21.4809 22.8399 22.0899 22.84 22.4655 22.4645C22.8409 22.089 22.8409 21.4802 22.4655 21.1046L19.7458 18.385ZM16.3462 19.2299C15.8152 19.2299 15.3847 19.6604 15.3847 20.1914V24.0376C15.3847 24.5686 15.8152 24.9991 16.3462 24.9991C16.8773 24.9991 17.3078 24.5686 17.3078 24.0376V20.1914C17.3078 19.6604 16.8773 19.2299 16.3462 19.2299ZM12.9467 18.385L10.2271 21.1046C9.85161 21.4801 9.85161 22.0889 10.2271 22.4645C10.6025 22.8399 11.2114 22.84 11.587 22.4645L14.3066 19.7449C14.6821 19.3694 14.6821 18.7606 14.3066 18.385C13.931 18.0095 13.3222 18.0095 12.9467 18.385ZM13.4616 16.3453C13.4616 15.8142 13.0311 15.3837 12.5001 15.3837H8.65392C8.12286 15.3837 7.69238 15.8142 7.69238 16.3453C7.69238 16.8763 8.12286 17.3068 8.65392 17.3068H12.5001C13.0311 17.3068 13.4616 16.8763 13.4616 16.3453ZM11.5869 10.2261C11.2114 9.85054 10.6026 9.85054 10.227 10.2261C9.85152 10.6015 9.85152 11.2104 10.227 11.586L12.9466 14.3056C13.322 14.681 13.9309 14.6811 14.3065 14.3056C14.682 13.9301 14.682 13.3212 14.3065 12.9457L11.5869 10.2261Z" fill="#D7001B"/>
<path d="M48.1593 43.9144L40.456 36.2111L46.4656 34.1506C46.6506 34.0872 46.8119 33.9688 46.928 33.8112C47.044 33.6537 47.1092 33.4645 47.1149 33.269C47.1205 33.0734 47.0664 32.8808 46.9597 32.7167C46.853 32.5527 46.6989 32.4252 46.5178 32.3511L31.7307 26.302V1.92247C31.7307 1.39142 31.3001 0.960938 30.7691 0.960938H1.92296C1.39191 0.960938 0.961426 1.39142 0.961426 1.92247V30.7686C0.961426 31.2996 1.39191 31.7302 1.92296 31.7302H26.5268L31.7865 46.4762C31.8521 46.6602 31.9722 46.8198 32.1307 46.9338C32.2892 47.0479 32.4787 47.1109 32.674 47.1146C32.8692 47.1183 33.061 47.0625 33.2237 46.9546C33.3864 46.8466 33.5125 46.6917 33.585 46.5103L36.0654 40.3094L43.9149 48.1589C45.0876 49.3316 46.9862 49.332 48.1594 48.1589C49.3295 46.9886 49.3295 45.0846 48.1593 43.9144ZM2.8845 29.8071V2.88401H29.8076V25.5152L25.3639 23.6974C25.192 23.6271 25.0035 23.608 24.821 23.6426C24.6386 23.6771 24.47 23.7638 24.3357 23.892C24.2015 24.0203 24.1072 24.1847 24.0643 24.3654C24.0215 24.5461 24.0318 24.7353 24.0942 24.9103L25.8408 29.8071H2.8845ZM32.7436 43.4354L26.629 26.2927L43.4203 33.1617L38.3747 34.8917L36.2264 35.6281C36.0956 35.673 35.9759 35.7456 35.8756 35.841C35.7754 35.9363 35.6969 36.0522 35.6455 36.1806L32.7436 43.4354ZM46.7995 46.799C46.3784 47.2204 45.6959 47.2204 45.2748 46.799L36.8425 38.3668L37.2675 37.3045L38.4309 36.9056L46.7996 45.2743C47.2199 45.6946 47.2199 46.3786 46.7995 46.799Z" fill="#D7001B"/>
</g>
</g>
</g>
</g>
<defs>
<clipPath id="clip0_10_106">
<rect width="50" height="50" fill="white"/>
</clipPath>
<clipPath id="clip1_10_106">
<rect width="50" height="50" fill="white"/>
</clipPath>
<clipPath id="clip2_10_106">
<rect width="50" height="50" fill="white"/>
</clipPath>
</defs>
</svg>
