<svg width="50" height="50" viewBox="0 0 50 50" fill="none" xmlns="http://www.w3.org/2000/svg">
<g clip-path="url(#clip0_10_223)">
<g clip-path="url(#clip1_10_223)">
<path d="M18.2715 15.0713C19.2949 17.2705 21.3584 18.8906 23.8252 19.2979V20.7676H21.1172C20.4434 20.7676 19.8965 21.3145 19.8965 21.9883C19.8965 22.6621 20.4434 23.209 21.1172 23.209H28.9746C29.6484 23.209 30.1953 22.6621 30.1953 21.9883C30.1953 21.3145 29.6484 20.7676 28.9746 20.7676H26.2666V19.2979C28.7344 18.8906 30.7969 17.2695 31.8203 15.0713C34.7852 14.8047 37.1162 12.3076 37.1162 9.27442C37.1162 6.06446 34.5049 3.45312 31.2949 3.45312H18.7959C15.5859 3.45312 12.9746 6.06446 12.9746 9.27442C12.9746 12.3076 15.3076 14.8047 18.2715 15.0713ZM34.6758 9.27442C34.6758 10.7148 33.7695 11.9473 32.4971 12.4336C32.5078 12.2666 32.5156 12.0996 32.5156 11.9297V6.12306C33.7773 6.61329 34.6758 7.84082 34.6758 9.27442ZM30.0752 11.9297C30.0752 14.7021 27.8193 16.958 25.0469 16.958C22.2744 16.958 20.0186 14.7021 20.0186 11.9297V5.89453H30.0762V11.9297H30.0752ZM17.5762 6.12306V11.9297C17.5762 12.0996 17.584 12.2666 17.5947 12.4336C16.3223 11.9482 15.416 10.7158 15.416 9.27442C15.416 7.83301 16.3135 6.61427 17.5752 6.12306H17.5762ZM36.4834 33.8496V35.9453C36.4834 36.6191 37.0303 37.166 37.7041 37.166C38.3779 37.166 38.9248 36.6191 38.9248 35.9453V33.8496C38.9248 31.5615 37.0625 29.6992 34.7744 29.6992H26.2676V25.8945C26.2676 25.2207 25.7207 24.6738 25.0469 24.6738C24.373 24.6738 23.8262 25.2207 23.8262 25.8945V29.6992H15.3193C13.0312 29.6992 11.1689 31.5615 11.1689 33.8496V35.9453C11.1689 36.6191 11.7158 37.166 12.3896 37.166C13.0635 37.166 13.6104 36.6191 13.6104 35.9453V33.8496C13.6104 32.9072 14.377 32.1406 15.3193 32.1406H34.7744C35.7168 32.1406 36.4834 32.9072 36.4834 33.8496ZM15.7637 38.6318H9.01465C6.83203 38.6318 5.05664 40.4072 5.05664 42.5898C5.05664 44.7725 6.83203 46.5478 9.01465 46.5478H15.7637C17.9463 46.5478 19.7217 44.7725 19.7217 42.5898C19.7217 40.4072 17.9463 38.6318 15.7637 38.6318ZM15.7637 44.1055H9.01465C8.17871 44.1055 7.49805 43.4248 7.49805 42.5889C7.49805 41.7529 8.17773 41.0723 9.01465 41.0723H15.7637C16.5996 41.0723 17.2803 41.7529 17.2803 42.5889C17.2803 43.4248 16.6006 44.1055 15.7637 44.1055ZM40.9854 38.6318H34.2363C32.0537 38.6318 30.2783 40.4072 30.2783 42.5898C30.2783 44.7725 32.0537 46.5478 34.2363 46.5478H40.9854C43.168 46.5478 44.9434 44.7725 44.9434 42.5898C44.9434 40.4072 43.168 38.6318 40.9854 38.6318ZM40.9854 44.1055H34.2363C33.4004 44.1055 32.7197 43.4248 32.7197 42.5889C32.7197 41.7529 33.3994 41.0723 34.2363 41.0723H40.9854C41.8213 41.0723 42.502 41.7529 42.502 42.5889C42.502 43.4248 41.8223 44.1055 40.9854 44.1055Z" fill="#D0122E"/>
</g>
</g>
<defs>
<clipPath id="clip0_10_223">
<rect width="50" height="50" fill="white"/>
</clipPath>
<clipPath id="clip1_10_223">
<rect width="50" height="50" fill="white"/>
</clipPath>
</defs>
</svg>
