<svg width="50" height="50" viewBox="0 0 50 50" fill="none" xmlns="http://www.w3.org/2000/svg">
<g clip-path="url(#clip0_10_213)">
<g clip-path="url(#clip1_10_213)">
<g clip-path="url(#clip2_10_213)">
<path d="M48.8105 11.7947C48.7985 11.7619 48.7826 11.733 48.7677 11.7022C48.7291 11.6252 48.6806 11.5536 48.6234 11.4893C48.6035 11.4654 48.5866 11.4415 48.5637 11.4196C48.4836 11.3414 48.3907 11.2775 48.2891 11.2306L41.9181 8.39979C42.4673 7.63066 42.8375 6.73814 42.9002 5.69837C43.0524 3.18997 41.3947 0.999975 38.7749 0.249745C36.7401 -0.333325 34.4476 0.12338 32.1482 1.56911C31.4417 2.01388 30.7502 2.54919 30.0846 3.14121L25.4041 1.06167C25.2769 1.00504 25.1393 0.975781 25.0001 0.975781C24.8609 0.975781 24.7233 1.00504 24.5961 1.06167L19.9306 3.13425C17.851 1.30643 15.4431 0 13.0203 0C12.4084 0 11.8034 0.0835799 11.2253 0.249745C8.60451 0.999975 6.94684 3.18997 7.10007 5.69936C7.16375 6.73913 7.53289 7.63066 8.08213 8.39979L1.71115 11.2316C1.60953 11.2785 1.51666 11.3424 1.43653 11.4206C1.41464 11.4405 1.39673 11.4654 1.37683 11.4893C1.31961 11.5536 1.2711 11.6252 1.23255 11.7022C1.21763 11.733 1.2027 11.7619 1.18977 11.7947C1.14579 11.905 1.1222 12.0223 1.12012 12.141V38.5841C1.12009 38.7766 1.17592 38.965 1.28082 39.1264C1.38573 39.2879 1.53521 39.4154 1.71115 39.4935L24.5961 49.6644C24.6101 49.6704 24.626 49.6684 24.6419 49.6744C24.7573 49.7192 24.8767 49.75 25.0001 49.75C25.1235 49.75 25.2429 49.7192 25.3583 49.6734C25.3732 49.6684 25.3902 49.6704 25.4041 49.6634L48.2891 39.4935C48.4651 39.4155 48.6146 39.288 48.7196 39.1265C48.8245 38.9651 48.8803 38.7767 48.8801 38.5841V12.141C48.878 12.0223 48.8544 11.905 48.8105 11.7947ZM24.0051 22.9586V47.2227L14.0551 42.8009V18.5368L24.0051 22.9586ZM25.0001 21.2224L15.5436 17.0195L23.4061 13.6036C23.422 13.5977 23.432 13.5837 23.4459 13.5758C23.7972 13.6016 24.1494 13.6295 24.4976 13.6544L25.018 13.6862C25.0479 13.6862 25.5016 13.6544 25.5016 13.6544C25.8498 13.6295 26.2031 13.6017 26.5543 13.5768C26.5692 13.5837 26.5782 13.5967 26.5941 13.6036L34.4566 17.0195L25.0001 21.2224ZM36.9252 15.923L30.6328 13.1897C32.0387 13.0146 33.4447 12.7877 34.8317 12.4395C36.1879 12.1002 38.5928 11.336 40.4276 9.91518L45.4354 12.141L36.9252 15.923ZM33.2079 3.25365C34.5452 2.41188 35.8048 1.989 36.972 1.989C37.4038 1.989 37.8227 2.04671 38.2266 2.16313C39.6425 2.56809 41.0226 3.781 40.9141 5.57697C40.7639 8.03761 37.4237 9.73906 34.3471 10.5102C31.7592 11.1589 29.0358 11.4037 26.3682 11.5977C27.3533 9.07042 29.993 5.27748 33.2079 3.25365ZM25.0001 3.05863L28.5642 4.64267C27.0817 6.26154 25.8299 8.10129 25.0081 9.76991C24.2031 8.10229 22.9683 6.26153 21.4659 4.62973L25.0001 3.05863ZM11.7736 2.16313C12.1791 2.04769 12.5987 1.98941 13.0203 1.99C17.3127 1.99 22.2091 7.85552 23.6409 11.5987C20.9704 11.4037 18.2441 11.1609 15.6521 10.5102C12.5775 9.73906 9.23633 8.03761 9.08509 5.57797C8.97664 3.782 10.3567 2.56809 11.7736 2.16313ZM9.57264 9.91518C11.4084 11.336 13.8123 12.1002 15.1685 12.4395C16.5556 12.7877 17.9615 13.0146 19.3674 13.1897L13.076 15.923L4.56481 12.141L9.57264 9.91518ZM3.11012 13.6723L12.0651 17.6523V41.9174L3.11012 37.9374V13.6723ZM25.9951 22.9586L35.9451 18.5359V42.8019L25.9951 47.2237V22.9586ZM37.9351 41.9174V17.6513L46.8901 13.6713V37.9374L37.9351 41.9174Z" fill="#D0122E"/>
</g>
</g>
</g>
<defs>
<clipPath id="clip0_10_213">
<rect width="50" height="50" fill="white"/>
</clipPath>
<clipPath id="clip1_10_213">
<rect width="50" height="50" fill="white"/>
</clipPath>
<clipPath id="clip2_10_213">
<rect width="50" height="50" fill="white"/>
</clipPath>
</defs>
</svg>
