<svg width="61" height="24" viewBox="0 0 61 24" fill="none" xmlns="http://www.w3.org/2000/svg">
<path d="M0 0H8.308V1.541H5.092V9.38H3.216V1.541H0V0ZM15.1498 6.03L14.2788 6.834H9.91045C10.1918 7.571 10.7948 8.174 12.0678 8.174C12.6038 8.174 13.0326 8.0534 13.3408 7.906C13.515 7.8256 13.6758 7.7318 13.8098 7.638L14.4798 8.844C14.2788 8.9914 14.0376 9.1254 13.783 9.246C13.314 9.4604 12.6976 9.648 11.9338 9.648C9.57545 9.648 8.04785 8.107 8.04785 6.03C8.04785 3.886 9.52185 2.412 11.5988 2.412C13.6758 2.412 15.1498 3.886 15.1498 6.03ZM9.91045 5.427H13.2738C13.1264 4.556 12.4698 3.886 11.5988 3.886C10.7278 3.886 10.0578 4.556 9.91045 5.427ZM18.5062 0V9.38H16.7642V1.407H15.7592V0H18.5062ZM26.9539 6.03L26.0829 6.834H21.7145C21.9959 7.571 22.5989 8.174 23.8719 8.174C24.4079 8.174 24.8367 8.0534 25.1449 7.906C25.3191 7.8256 25.4799 7.7318 25.6139 7.638L26.2839 8.844C26.0829 8.9914 25.8417 9.1254 25.5871 9.246C25.1181 9.4604 24.5017 9.648 23.7379 9.648C21.3795 9.648 19.8519 8.107 19.8519 6.03C19.8519 3.886 21.3259 2.412 23.4029 2.412C25.4799 2.412 26.9539 3.886 26.9539 6.03ZM21.7145 5.427H25.0779C24.9305 4.556 24.2739 3.886 23.4029 3.886C22.5319 3.886 21.8619 4.556 21.7145 5.427ZM34.6651 3.015V8.911C34.6651 10.854 33.3251 12.194 30.9131 12.194C30.1091 12.194 29.4525 11.993 29.0103 11.792C28.7423 11.6714 28.5011 11.5374 28.3001 11.39L28.9701 10.184C29.1175 10.2778 29.2917 10.3716 29.4793 10.452C29.8143 10.5994 30.2431 10.72 30.7791 10.72C31.7305 10.72 32.2531 10.3314 32.5613 9.9562C32.7355 9.7284 32.8561 9.4604 32.9231 9.179V9.112C32.7891 9.1522 32.6551 9.179 32.5077 9.2058C32.2531 9.2728 31.9583 9.313 31.6501 9.313C29.2381 9.313 27.6971 7.772 27.6971 5.829C27.6971 3.953 29.2381 2.412 31.6501 2.412C32.4139 2.412 33.1643 2.5594 33.7405 2.7068C34.0621 2.8006 34.3703 2.8944 34.6651 3.015ZM31.6501 3.886C30.3101 3.886 29.5061 4.69 29.5061 5.829C29.5061 7.0484 30.3101 7.839 31.6501 7.839C31.9583 7.839 32.2799 7.7854 32.5077 7.7318C32.6551 7.705 32.7891 7.6782 32.9231 7.638V4.087C32.7891 4.0468 32.6551 4.02 32.5077 3.9798C32.2531 3.9262 31.9583 3.886 31.6501 3.886ZM39.2851 3.886C38.9769 3.886 38.6955 3.9396 38.4945 3.9798C38.3739 4.02 38.2533 4.0468 38.1461 4.087V9.38H36.4041V3.015C36.6587 2.8944 36.9267 2.8006 37.2215 2.7068C37.7575 2.546 38.4007 2.412 39.1511 2.412C39.8077 2.412 40.3571 2.5326 40.7725 2.68C41.0137 2.7604 41.2281 2.8542 41.4291 2.948L40.9601 4.288C40.8261 4.221 40.6787 4.154 40.5045 4.087C40.1829 3.9798 39.7809 3.886 39.2851 3.886ZM44.9827 2.412C47.1401 2.412 48.2657 3.5376 48.2657 5.36V9.179C47.9575 9.2728 47.6359 9.3532 47.2741 9.4202C46.6309 9.5408 45.8537 9.648 44.9827 9.648C42.6377 9.648 41.6326 8.643 41.6326 7.303C41.6326 5.963 42.6377 4.958 44.9827 4.958C45.4115 4.958 45.8001 4.9848 46.0815 5.025C46.2423 5.0384 46.3897 5.0652 46.5237 5.092C46.5237 4.3416 46.0547 3.886 44.9827 3.886C44.4467 3.886 43.9777 4.0066 43.6427 4.1138C43.4417 4.1808 43.2674 4.2612 43.1067 4.355L42.4367 3.149C42.6243 3.015 42.8521 2.8944 43.1067 2.7738C43.5756 2.5728 44.1787 2.412 44.9827 2.412ZM44.9827 8.174C45.3981 8.174 45.7733 8.1204 46.0547 8.0668C46.2289 8.04 46.3763 8.0132 46.5237 7.973V6.566C46.3763 6.5392 46.2289 6.5124 46.0547 6.499C45.7465 6.4588 45.3981 6.432 44.9827 6.432C43.8437 6.432 43.4417 6.834 43.4417 7.303C43.4417 7.772 43.8437 8.174 44.9827 8.174ZM55.0274 3.0954H55.0944C55.282 2.9748 55.4964 2.8542 55.7376 2.747C56.1664 2.5728 56.689 2.412 57.3724 2.412C59.5298 2.412 60.6554 3.5376 60.6554 5.427V9.38H58.9134V5.427C58.9134 4.3952 58.4042 3.886 57.3724 3.886C56.9302 3.886 56.5818 4.0066 56.354 4.1138C56.2066 4.1808 56.086 4.2478 55.9788 4.3416C56.019 4.422 56.0458 4.5158 56.0726 4.6364C56.1262 4.8374 56.1664 5.092 56.1664 5.427V9.38H54.4244V5.427C54.4244 4.3952 53.9152 3.886 52.8834 3.886C52.5484 3.886 52.2536 3.9396 52.0258 3.9798C51.9052 4.02 51.7846 4.0468 51.6774 4.087V9.38H49.9354V3.015C50.2168 2.8944 50.525 2.8006 50.86 2.7068C51.4496 2.546 52.133 2.412 52.8834 2.412C53.5936 2.412 54.1162 2.5862 54.478 2.747C54.6924 2.8542 54.88 2.9748 55.0274 3.0954ZM5.829 23.7371L3.953 21.0571H2.479V23.7371H0.736999V17.0371H2.479V19.6501H3.685C4.556 19.6501 5.0116 19.1811 5.159 18.6451L5.561 17.0371H7.303L6.901 18.6451C6.7 19.4491 6.365 19.9315 6.0836 20.2129C5.9094 20.3871 5.7352 20.5077 5.561 20.5881V20.6551L7.772 23.7371H5.829ZM11.4617 16.7691C13.6191 16.7691 14.7447 17.8947 14.7447 19.7171V23.5361C14.4365 23.6299 14.1149 23.7103 13.7531 23.7773C13.1099 23.8979 12.3327 24.0051 11.4617 24.0051C9.11669 24.0051 8.11169 23.0001 8.11169 21.6601C8.11169 20.3201 9.11669 19.3151 11.4617 19.3151C11.8905 19.3151 12.2791 19.3419 12.5605 19.3821C12.7213 19.3955 12.8687 19.4223 13.0027 19.4491C13.0027 18.6987 12.5337 18.2431 11.4617 18.2431C10.9257 18.2431 10.4567 18.3637 10.1217 18.4709C9.92069 18.5379 9.74649 18.6183 9.58569 18.7121L8.91569 17.5061C9.10329 17.3721 9.33109 17.2515 9.58569 17.1309C10.0547 16.9299 10.6577 16.7691 11.4617 16.7691ZM11.4617 22.5311C11.8771 22.5311 12.2523 22.4775 12.5337 22.4239C12.7079 22.3971 12.8553 22.3703 13.0027 22.3301V20.9231C12.8553 20.8963 12.7079 20.8695 12.5337 20.8561C12.2255 20.8159 11.8771 20.7891 11.4617 20.7891C10.3227 20.7891 9.92069 21.1911 9.92069 21.6601C9.92069 22.1291 10.3227 22.5311 11.4617 22.5311ZM16.4145 23.7371V17.0371H18.1565V19.7841H21.3055V17.0371H23.0475V23.7371H21.3055V21.1911H18.1565V23.7371H16.4145ZM27.5972 16.7691C29.7546 16.7691 30.8802 17.8947 30.8802 19.7171V23.5361C30.572 23.6299 30.2504 23.7103 29.8886 23.7773C29.2454 23.8979 28.4682 24.0051 27.5972 24.0051C25.2522 24.0051 24.2472 23.0001 24.2472 21.6601C24.2472 20.3201 25.2522 19.3151 27.5972 19.3151C28.026 19.3151 28.4146 19.3419 28.696 19.3821C28.8568 19.3955 29.0042 19.4223 29.1382 19.4491C29.1382 18.6987 28.6692 18.2431 27.5972 18.2431C27.0612 18.2431 26.5922 18.3637 26.2572 18.4709C26.0562 18.5379 25.882 18.6183 25.7212 18.7121L25.0512 17.5061C25.2388 17.3721 25.4666 17.2515 25.7212 17.1309C26.1902 16.9299 26.7932 16.7691 27.5972 16.7691ZM27.5972 22.5311C28.0126 22.5311 28.3878 22.4775 28.6692 22.4239C28.8434 22.3971 28.9908 22.3703 29.1382 22.3301V20.9231C28.9908 20.8963 28.8434 20.8695 28.6692 20.8561C28.361 20.8159 28.0126 20.7891 27.5972 20.7891C26.4582 20.7891 26.0562 21.1911 26.0562 21.6601C26.0562 22.1291 26.4582 22.5311 27.5972 22.5311ZM33.7559 17.0371H39.2499V23.7371H37.5079V18.4441H35.2969L35.0289 20.9231C34.8145 23.0135 33.8229 24.0051 32.4159 24.0051C32.2149 24.0051 32.0005 23.9783 31.8263 23.9381C31.7325 23.9247 31.6387 23.8979 31.5449 23.8711V22.4641H31.6789C32.6303 22.4641 33.1663 21.9549 33.2869 20.9231L33.7559 17.0371Z" fill="#2AAAEC"/>
</svg>
